<svg width="328" height="208" viewBox="0 0 328 208" fill="none" xmlns="http://www.w3.org/2000/svg">
<path d="M258.515 188.512L258.317 184.365C260.881 184.085 263.528 183.412 266.258 182.346L267.224 186.245C264.152 187.238 261.079 188.232 258.515 188.512ZM274.729 182.902L273.337 179.324C275.725 178.186 278.195 176.655 280.666 175.123L282.483 178.381C279.93 180.305 277.459 181.837 274.729 182.902ZM289.375 172.856L287.132 169.92C289.343 167.923 291.211 165.854 293.079 163.785L295.747 166.401C293.879 168.47 291.586 170.86 289.375 172.856ZM301.601 159.015L298.849 156.792C300.458 154.258 302.066 151.724 303.332 149.117L306.509 151.019C304.901 153.554 303.292 156.088 301.601 159.015ZM310.214 141.948L306.954 140.439C307.202 139.26 307.794 138.153 307.96 137.367C308.375 135.402 309.049 133.902 309.464 131.936L312.89 132.66C312.475 134.625 312.06 136.59 311.303 138.483C311.054 139.662 310.462 140.769 310.214 141.948ZM310.604 123.145C310.842 120.321 311.163 117.105 311.059 114.209L314.734 113.753C314.755 117.042 314.777 120.331 314.539 123.154L310.604 123.145ZM218.819 95.1487C216.763 94.7148 214.531 93.4225 212.724 91.8094L215.184 88.6337C216.907 90.6397 219.223 91.539 221.361 91.5799L221.217 95.6549C220.189 95.4379 219.504 95.2933 218.819 95.1487ZM59.3148 57.3738C56.574 56.7952 53.8333 56.2167 51.1755 55.2451L52.3478 51.3871C54.6629 52.2863 57.4037 52.8649 60.1444 53.4434L59.3148 57.3738ZM67.62 58.7163L68.107 54.7137C70.5052 55.2199 73.3289 55.4054 76.1526 55.5909L75.6655 59.5936C72.8418 59.4081 70.0181 59.2226 67.62 58.7163ZM43.6277 52.0097C40.97 51.0381 38.3952 49.6735 36.1629 48.3812L38.0204 44.6678C40.2526 45.9601 42.8274 47.3247 45.1426 48.2239L43.6277 52.0097ZM83.7941 60.0778L83.9385 56.0028C86.7622 56.1883 89.3263 55.9084 92.15 56.0939L92.0056 60.1689C89.5244 60.0557 86.7007 59.8702 83.7941 60.0778ZM229.479 90.4196L226.893 87.4105C228.336 85.6623 229.519 83.4487 230.1 80.6974L230.183 80.3044L233.609 81.0276L233.443 81.8137C232.779 84.9579 231.43 87.9576 229.479 90.4196ZM310.143 104.984C309.696 102.015 309.249 99.0472 308.377 96.3997L311.875 95.0854C312.665 98.1259 313.454 101.166 313.901 104.135L310.143 104.984ZM208.3 82.254C208.383 81.8609 208.383 81.8609 208.123 81.3956C208.029 80.1441 208.278 78.965 208.61 77.3929C209.025 75.4277 209.699 73.9279 210.457 72.035L213.634 73.9373C212.959 75.4371 212.285 76.9369 212.036 78.1161C211.787 79.2952 211.621 80.0812 211.715 81.3327L211.632 81.7257L208.3 82.254ZM100.383 59.474L100.527 55.399C103.092 55.1191 105.998 54.9116 108.562 54.6318L108.76 58.7791C105.854 58.9866 103.29 59.2665 100.383 59.474ZM29.2896 43.6459C27.1404 41.9606 24.6485 40.2029 22.5822 38.1246L25.0419 34.9488C27.1082 37.0272 28.9148 38.6402 31.0641 40.3255L29.2896 43.6459ZM116.878 57.6188L116.68 53.4715C119.504 53.657 122.151 52.9841 124.715 52.7042L124.913 56.8516C122.349 57.1314 119.785 57.4113 116.878 57.6188ZM133.456 55.3706L133.258 51.2232C135.822 50.9434 138.812 50.3428 141.376 50.063L141.574 54.2103C138.668 54.4178 136.02 55.0907 133.456 55.3706ZM305.842 88.0642C304.627 85.3444 303.412 82.6246 302.114 80.2978L305.093 78.0528C306.65 80.8449 307.865 83.5647 309.081 86.2845L305.842 88.0642ZM229.786 72.0098C229.433 70.293 228.654 68.8969 227.875 67.5009C227.356 66.5702 226.837 65.6395 226.235 65.1018L228.954 62.3914C229.816 63.3944 230.335 64.3251 231.197 65.3282C232.235 67.1896 232.931 68.9787 233.285 70.6954L229.786 72.0098ZM149.692 53.05L149.494 48.9027C152.058 48.6228 154.965 48.4153 157.612 47.7424L157.81 51.8897C155.163 52.5626 152.256 52.7702 149.692 53.05ZM218.636 67.1928L216.393 64.256C218.261 62.1871 220.389 60.5835 222.942 58.6591L223.368 58.3384L225.102 61.9889L224.677 62.3097C222.549 63.9133 220.421 65.5168 218.636 67.1928ZM165.762 51.5155L165.906 47.4405C168.813 47.233 171.377 46.9531 174.201 47.1386L174.056 51.2137C171.232 51.0281 168.668 51.308 165.762 51.5155ZM220.555 59.7974C218.665 58.5774 216.091 57.2128 213.433 56.2412L214.605 52.3832C217.605 53.4271 219.838 54.7194 222.412 56.084L220.555 59.7974ZM182.008 50.8394L182.152 46.7644C184.976 46.9499 187.8 47.1355 190.281 47.2486L189.794 51.2513C187.313 51.1381 184.832 51.0249 182.008 50.8394ZM297.451 73.5659C295.81 71.1668 294.087 69.1608 291.937 67.4755L294.397 64.2997C296.463 66.3781 298.53 68.4565 300.17 70.8555L297.451 73.5659ZM198.099 52.5939L198.929 48.6635C201.67 49.2421 204.41 49.8206 207.151 50.3992L206.321 54.3295C203.321 53.2856 200.58 52.7071 198.099 52.5939ZM232.348 58.1812L230.956 54.603C233.686 53.537 236.416 52.4711 239.146 51.4052L239.77 55.2318C237.465 55.977 234.818 56.6499 232.348 58.1812ZM285.573 62.0264C283.423 60.3411 281.191 59.0488 278.533 58.0772L280.048 54.2915C282.623 55.6561 285.198 57.0207 287.347 58.7061L285.573 62.0264ZM248.053 53.2855L247.855 49.1381C250.762 48.9306 253.326 48.6507 256.233 48.4432L256.088 52.5182C253.181 52.7257 250.617 53.0056 248.053 53.2855ZM271.588 55.3795C268.93 54.4079 266.532 53.9017 263.791 53.3231L264.278 49.3204C267.019 49.899 269.76 50.4775 272.5 51.056L271.588 55.3795Z" fill="#929292"/>
<path d="M274.426 196.329L275.291 192.226L258.426 187.507L264.958 168.719L261.695 167.122L253.965 190.453L274.426 196.329Z" fill="#929292"/>
</svg>
