<svg width="186" height="186" viewBox="0 0 186 186" fill="none" xmlns="http://www.w3.org/2000/svg">
<circle cx="93" cy="93" r="93" fill="url(#paint0_linear_282_3086)" fill-opacity="0.15"/>
<path d="M72.3835 98.5073H75.7931V112.146H72.3835V98.5073Z" fill="url(#paint1_linear_282_3086)"/>
<path d="M57.5261 103.377H60.9356V112.145H57.5261V103.377Z" fill="url(#paint2_linear_282_3086)"/>
<path d="M87.2385 94.8531H90.648V112.145H87.2385V94.8531Z" fill="url(#paint3_linear_282_3086)"/>
<path d="M137.897 118.72V68.7934C137.897 64.4828 134.414 61 130.103 61H53.144C48.8334 61 45.3506 64.4828 45.3506 68.7934V118.72C45.3506 123.031 48.8334 126.514 53.144 126.514H130.103C134.414 126.514 137.897 123.031 137.897 118.72ZM104.872 78.2925H116.343C117.415 78.2925 118.292 79.1693 118.292 80.2409C118.292 81.3125 117.415 82.1892 116.343 82.1892H104.872C103.801 82.1892 102.924 81.3125 102.924 80.2409C102.924 79.1693 103.776 78.2925 104.872 78.2925ZM104.872 92.4182H128.765C129.836 92.4182 130.713 93.295 130.713 94.3666C130.713 95.4382 129.836 96.3149 128.765 96.3149H104.872C103.801 96.3149 102.924 95.4382 102.924 94.3666C102.924 93.295 103.776 92.4182 104.872 92.4182ZM64.8342 113.85C64.8342 114.922 63.9574 115.799 62.8858 115.799H55.5796C54.508 115.799 53.6312 114.922 53.6312 113.85V101.429C53.6312 100.358 54.508 99.4811 55.5796 99.4811H62.8858C63.9574 99.4811 64.8342 100.358 64.8342 101.429V113.85ZM79.6905 113.85C79.6905 114.922 78.8137 115.799 77.7421 115.799H70.4359C69.3643 115.799 68.4875 114.922 68.4875 113.85V96.5586C68.4875 95.487 69.3643 94.6102 70.4359 94.6102H77.7421C78.8137 94.6102 79.6905 95.487 79.6905 96.5586V113.85ZM94.5468 113.85C94.5468 114.922 93.67 115.799 92.5984 115.799H85.2922C84.2206 115.799 83.3438 114.922 83.3438 113.85V92.9054C83.3438 91.8338 84.2206 90.9571 85.2922 90.9571H92.5984C93.67 90.9571 94.5468 91.8338 94.5468 92.9054V113.85ZM97.5666 72.7632L96.7385 83.5765C96.6655 84.5994 95.8131 85.3787 94.7902 85.3787H94.6441C93.5725 85.3056 92.7688 84.3558 92.8418 83.2842L93.3289 76.8547L78.0587 88.7154C77.3524 89.2755 76.3539 89.2512 75.6476 88.7154L64.615 79.9965L53.899 90.2741C53.1197 91.029 51.8776 91.0047 51.147 90.2253C50.3921 89.446 50.4164 88.2039 51.1958 87.4734L63.1295 76.0268C63.8358 75.3449 64.9317 75.2962 65.6866 75.905L76.9141 84.7457L90.4551 74.2246L83.8549 73.7618C82.7833 73.6888 81.9796 72.7633 82.0283 71.6917C82.1014 70.6201 83.0269 69.8164 84.0985 69.8651H84.1228L95.7887 70.6932C96.8359 70.7662 97.664 71.6916 97.5666 72.7632ZM104.873 110.684C103.801 110.684 102.924 109.807 102.924 108.735C102.924 107.664 103.801 106.787 104.873 106.787H128.765C129.837 106.787 130.714 107.664 130.714 108.735C130.714 109.807 129.837 110.684 128.765 110.684H104.873Z" fill="url(#paint4_linear_282_3086)"/>
<defs>
<linearGradient id="paint0_linear_282_3086" x1="-50.0447" y1="93.7889" x2="187.178" y2="93.7889" gradientUnits="userSpaceOnUse">
<stop stop-color="#F2584E"/>
<stop offset="1" stop-color="#FFBF18"/>
</linearGradient>
<linearGradient id="paint1_linear_282_3086" x1="71.4662" y1="105.384" x2="75.8147" y2="105.384" gradientUnits="userSpaceOnUse">
<stop stop-color="#F2584E"/>
<stop offset="1" stop-color="#FFBF18"/>
</linearGradient>
<linearGradient id="paint2_linear_282_3086" x1="56.6088" y1="107.798" x2="60.9572" y2="107.798" gradientUnits="userSpaceOnUse">
<stop stop-color="#F2584E"/>
<stop offset="1" stop-color="#FFBF18"/>
</linearGradient>
<linearGradient id="paint3_linear_282_3086" x1="86.3212" y1="103.572" x2="90.6696" y2="103.572" gradientUnits="userSpaceOnUse">
<stop stop-color="#F2584E"/>
<stop offset="1" stop-color="#FFBF18"/>
</linearGradient>
<linearGradient id="paint4_linear_282_3086" x1="20.4504" y1="94.0348" x2="138.483" y2="94.0348" gradientUnits="userSpaceOnUse">
<stop stop-color="#F2584E"/>
<stop offset="1" stop-color="#FFBF18"/>
</linearGradient>
</defs>
</svg>
