<svg width="142" height="53" viewBox="0 0 142 53" fill="none" xmlns="http://www.w3.org/2000/svg">
<path d="M59.2948 7.15607H63.3259V15.6978H72.3137V7.15607H76.3448V28.5403H72.3137V19.5207H63.3259V28.5403H59.2948V7.15607Z" fill="url(#paint0_linear_39_312)"/>
<path d="M81.2524 7.15607H94.8088V10.9789H85.2835V15.9367H93.8533V19.7596H85.2835V24.7174H94.8088V28.5403H81.2524V7.15607Z" fill="url(#paint1_linear_39_312)"/>
<path d="M98.9526 7.15607H102.984V24.7174H112.031V28.5403H98.9526V7.15607Z" fill="url(#paint2_linear_39_312)"/>
<path d="M115.399 7.15607H119.43V28.5403H115.399V7.15607Z" fill="url(#paint3_linear_39_312)"/>
<path d="M129.399 17.3703L122.949 7.15607H127.936L132.086 14.1448H132.325L136.446 7.15607H141.462L134.983 17.3703L142 28.5403H136.983L132.325 20.8348H132.086L127.428 28.5403H122.412L129.399 17.3703Z" fill="url(#paint4_linear_39_312)"/>
<path d="M61.4028 32.0279H63.4565L67.7723 43.518H65.7829L64.756 40.5813H60.1193L59.0764 43.518H57.0869L61.4028 32.0279ZM64.1464 38.9123L62.927 35.4942L62.4778 34.1623H62.3815L61.9323 35.4942L60.7129 38.9123H64.1464Z" fill="#222222"/>
<path d="M71.0981 32.0279H72.8951V43.518H71.0981V32.0279Z" fill="#222222"/>
<path d="M85.5618 32.0279H87.6155L91.9314 43.518H89.9419L88.9151 40.5813H84.2783L83.2354 43.518H81.2459L85.5618 32.0279ZM88.3054 38.9123L87.086 35.4942L86.6368 34.1623H86.5405L86.0913 35.4942L84.8719 38.9123H88.3054Z" fill="#222222"/>
<path d="M98.5783 43.7747C97.6263 43.7747 96.7706 43.4966 96.0112 42.9402C95.2518 42.3839 94.7277 41.603 94.4389 40.5973L96.1396 39.9073C96.3107 40.5385 96.6102 41.0573 97.038 41.4639C97.4766 41.8597 98.0007 42.0576 98.6104 42.0576C99.1773 42.0576 99.6586 41.9132 100.054 41.6243C100.45 41.3248 100.648 40.9183 100.648 40.4047C100.648 39.934 100.472 39.5489 100.119 39.2493C99.7763 38.9391 99.1719 38.6288 98.3055 38.3186L97.5835 38.0618C96.8134 37.7943 96.1663 37.4092 95.6422 36.9064C95.1181 36.4036 94.856 35.7403 94.856 34.9165C94.856 34.3495 95.0111 33.8253 95.3213 33.3438C95.6315 32.8624 96.0593 32.4826 96.6049 32.2045C97.161 31.9156 97.7868 31.7712 98.482 31.7712C99.4875 31.7712 100.29 32.0172 100.889 32.5094C101.488 32.9908 101.889 33.5364 102.092 34.1462L100.472 34.8363C100.354 34.4725 100.129 34.1516 99.7976 33.8734C99.4661 33.5952 99.0382 33.4562 98.5141 33.4562C97.99 33.4562 97.5461 33.5899 97.1824 33.8573C96.8295 34.1248 96.653 34.4672 96.653 34.8844C96.653 35.2802 96.8134 35.6065 97.1343 35.8633C97.4552 36.12 97.9579 36.3661 98.6425 36.6015L99.3645 36.8422C100.348 37.1845 101.108 37.6339 101.643 38.1902C102.188 38.7358 102.461 39.4686 102.461 40.3887C102.461 41.1376 102.268 41.7688 101.883 42.2823C101.498 42.7851 101.006 43.1596 100.407 43.4056C99.819 43.6517 99.2094 43.7747 98.5783 43.7747Z" fill="#222222"/>
<path d="M109.603 43.7747C108.651 43.7747 107.795 43.4966 107.036 42.9402C106.277 42.3839 105.752 41.603 105.464 40.5973L107.164 39.9073C107.335 40.5385 107.635 41.0573 108.063 41.4639C108.501 41.8597 109.025 42.0576 109.635 42.0576C110.202 42.0576 110.683 41.9132 111.079 41.6243C111.475 41.3248 111.673 40.9183 111.673 40.4047C111.673 39.934 111.496 39.5489 111.143 39.2493C110.801 38.9391 110.197 38.6288 109.33 38.3186L108.608 38.0618C107.838 37.7943 107.191 37.4092 106.667 36.9064C106.143 36.4036 105.881 35.7403 105.881 34.9165C105.881 34.3495 106.036 33.8253 106.346 33.3438C106.656 32.8624 107.084 32.4826 107.63 32.2045C108.186 31.9156 108.812 31.7712 109.507 31.7712C110.512 31.7712 111.314 32.0172 111.913 32.5094C112.512 32.9908 112.913 33.5364 113.117 34.1462L111.496 34.8363C111.379 34.4725 111.154 34.1516 110.822 33.8734C110.491 33.5952 110.063 33.4562 109.539 33.4562C109.015 33.4562 108.571 33.5899 108.207 33.8573C107.854 34.1248 107.678 34.4672 107.678 34.8844C107.678 35.2802 107.838 35.6065 108.159 35.8633C108.48 36.12 108.983 36.3661 109.667 36.6015L110.389 36.8422C111.373 37.1845 112.133 37.6339 112.667 38.1902C113.213 38.7358 113.486 39.4686 113.486 40.3887C113.486 41.1376 113.293 41.7688 112.908 42.2823C112.523 42.7851 112.031 43.1596 111.432 43.4056C110.844 43.6517 110.234 43.7747 109.603 43.7747Z" fill="#222222"/>
<path d="M117.307 32.0279H119.104V43.518H117.307V32.0279Z" fill="#222222"/>
<path d="M126.811 43.7747C125.859 43.7747 125.003 43.4966 124.244 42.9402C123.485 42.3839 122.96 41.603 122.672 40.5973L124.372 39.9073C124.543 40.5385 124.843 41.0573 125.271 41.4639C125.709 41.8597 126.233 42.0576 126.843 42.0576C127.41 42.0576 127.891 41.9132 128.287 41.6243C128.683 41.3248 128.881 40.9183 128.881 40.4047C128.881 39.934 128.704 39.5489 128.351 39.2493C128.009 38.9391 127.405 38.6288 126.538 38.3186L125.816 38.0618C125.046 37.7943 124.399 37.4092 123.875 36.9064C123.351 36.4036 123.089 35.7403 123.089 34.9165C123.089 34.3495 123.244 33.8253 123.554 33.3438C123.864 32.8624 124.292 32.4826 124.838 32.2045C125.394 31.9156 126.02 31.7712 126.715 31.7712C127.72 31.7712 128.522 32.0172 129.121 32.5094C129.72 32.9908 130.121 33.5364 130.325 34.1462L128.704 34.8363C128.587 34.4725 128.362 34.1516 128.03 33.8734C127.699 33.5952 127.271 33.4562 126.747 33.4562C126.223 33.4562 125.779 33.5899 125.415 33.8573C125.062 34.1248 124.886 34.4672 124.886 34.8844C124.886 35.2802 125.046 35.6065 125.367 35.8633C125.688 36.12 126.191 36.3661 126.875 36.6015L127.597 36.8422C128.581 37.1845 129.341 37.6339 129.875 38.1902C130.421 38.7358 130.694 39.4686 130.694 40.3887C130.694 41.1376 130.501 41.7688 130.116 42.2823C129.731 42.7851 129.239 43.1596 128.64 43.4056C128.052 43.6517 127.442 43.7747 126.811 43.7747Z" fill="#222222"/>
<path d="M136.684 33.745H133.476V32.0279H141.69V33.745H138.481V43.518H136.684V33.745Z" fill="#222222"/>
<g filter="url(#filter0_d_39_312)">
<path d="M13.1414 30.8234L10.0402 31.8293V21.2292C10.0402 19.888 10.7638 18.6501 11.9268 17.9795L22.8845 11.6607V11.2996C22.8845 10.2422 22.471 9.23635 21.7216 8.48841L20.4811 7.25045C19.8608 7.45678 19.163 7.50836 18.4394 7.27624C17.2247 6.88937 16.3202 5.78036 16.191 4.5166C16.0101 2.40174 17.8967 0.647956 20.0676 1.06061C20.8946 1.21536 21.6699 1.73118 22.1092 2.45332C22.7553 3.45917 22.7553 4.59398 22.3677 5.47087L23.5306 6.65725C24.7711 7.89522 25.4431 9.54585 25.4431 11.2996V22.0803C25.4431 22.7508 24.8745 23.2666 24.2026 23.2666C24.2026 23.2666 24.2026 23.2666 24.1767 23.2666C24.125 23.2666 24.0992 23.2666 24.0475 23.2666C23.3756 23.2924 22.807 22.7508 22.807 22.0803V15.2457L15.028 19.7849C13.865 20.4554 13.1414 21.6934 13.1414 23.0345V30.8234ZM26.0633 38.8444C24.9003 39.515 23.4789 39.515 22.316 38.8444L14.4853 34.331L20.0417 31.2876C20.6103 30.9782 20.8429 30.256 20.5069 29.6886C20.4811 29.6112 20.4294 29.5596 20.4035 29.4823C20.1192 28.8891 19.3698 28.6828 18.7754 28.9922L13.1414 32.0872L10.0402 33.7894L9.31653 34.1762C7.79175 35.0273 6.65462 36.4458 6.16359 38.1223L5.51749 40.3661C3.91518 40.5466 2.64883 41.9135 2.64883 43.5642C2.64883 45.4727 4.30283 46.9944 6.26696 46.7622C7.66253 46.6075 8.8255 45.4985 9.05809 44.1316C9.26484 42.9452 8.79966 41.8619 7.9985 41.1398L8.67044 38.8444C8.95472 37.8386 9.62666 36.9874 10.557 36.4716L11.2807 36.059L22.2643 42.4036C23.4272 43.0741 24.8487 43.0741 26.0116 42.4036L35.2637 37.0648L32.7052 34.9758L26.0633 38.8444ZM47.3845 31.0555C45.7563 31.0555 44.3866 32.2677 44.1798 33.841L42.0606 34.4599C41.0527 34.7694 39.9673 34.6405 39.0369 34.1247L38.2874 33.712V21.2292C38.2874 19.888 37.5638 18.6501 36.4008 17.9795L27.3038 12.7181L26.6836 15.9162L33.3513 19.7591C34.5142 20.4296 35.2379 21.6676 35.2379 23.0087V32.0356L29.7073 29.018C29.1387 28.7085 28.3893 28.9149 28.105 29.4823C28.0791 29.5596 28.0274 29.6112 28.0016 29.6886C27.6656 30.256 27.8982 30.9782 28.4668 31.2876L33.9457 34.2794L37.1245 36.0074L37.8223 36.3943C38.8043 36.9359 39.8639 37.1938 40.9493 37.1938C41.5696 37.1938 42.1899 37.1164 42.8101 36.9359L44.9293 36.3169C45.6271 37.1422 46.7125 37.6064 47.9013 37.4259C49.2969 37.2196 50.4082 36.059 50.5891 34.6663C50.8217 32.7061 49.2969 31.0555 47.3845 31.0555ZM24.2026 25.1494C22.9879 25.1494 22.0058 26.1294 22.0058 27.3416C22.0058 28.5538 22.9879 29.5339 24.2026 29.5339C25.4172 29.5339 26.3993 28.5538 26.3993 27.3416C26.3993 26.1294 25.3914 25.1494 24.2026 25.1494ZM40.0448 10.9128C38.7526 9.9585 36.9694 10.3712 36.2199 11.7123C35.5738 12.8729 35.884 14.2914 36.9177 15.0651L36.4784 16.8963L37.8998 17.7216C38.0807 17.8247 38.2358 17.9279 38.3908 18.0569L38.9852 15.5551C39.8381 15.4004 40.6134 14.8072 40.9493 13.9045C41.337 12.8471 40.9752 11.5833 40.0448 10.9128ZM30.6894 45.4211C29.9399 44.8021 28.9837 44.699 28.1567 44.9827L26.7094 43.5126L25.6757 44.1058C25.3655 44.2863 25.0554 44.3895 24.7194 44.4668L26.6319 46.427C26.115 47.6391 26.5802 49.0576 27.7432 49.7024C29.087 50.4503 30.8186 49.9087 31.4388 48.4386C31.8782 47.3812 31.568 46.1175 30.6894 45.4211ZM6.68046 20.3007C6.21528 19.6817 5.41412 19.2433 4.4579 19.269C3.76011 19.2948 3.11402 19.6301 2.64883 20.1459C1.48586 21.5129 1.95105 23.5246 3.52752 24.2467C4.48374 24.6852 5.62087 24.4788 6.37034 23.7825C6.83553 23.3698 7.06812 22.854 7.1715 22.3382L8.87719 21.8739V20.3265C8.87719 20.0944 8.90303 19.888 8.95472 19.6817L6.68046 20.3007Z" fill="url(#paint5_radial_39_312)"/>
<path d="M22.4408 38.6278L22.4408 38.6278C23.5263 39.2537 24.8522 39.2538 25.9378 38.6282C25.938 38.6281 25.9382 38.628 25.9384 38.6278L32.5793 34.7597L32.7291 34.6725L32.8633 34.7821L35.4218 36.8712L35.7024 37.1003L35.3887 37.2814L26.1366 42.6201L26.1365 42.6201C24.8962 43.3353 23.3797 43.3353 22.1394 42.6201L22.1392 42.62L11.2799 36.3472L10.6809 36.6888L10.6783 36.6903C9.80589 37.1739 9.17709 37.971 8.91101 38.9124L8.91038 38.9146L8.28152 41.0628C9.06803 41.8342 9.51719 42.9524 9.30447 44.174C9.0531 45.6499 7.80178 46.8432 6.29541 47.0106C4.18122 47.2599 2.39883 45.6203 2.39883 43.5642C2.39883 41.8412 3.67637 40.4081 5.32225 40.1406L5.92335 38.0531L5.92367 38.052C6.43325 36.3122 7.61305 34.8408 9.19468 33.9579L9.19864 33.9557L9.19866 33.9558L9.91987 33.5702L9.92229 33.5689L13.021 31.868L13.0211 31.868L18.655 28.7731L18.6599 28.7704L18.6599 28.7705C19.3636 28.4041 20.2761 28.6379 20.629 29.3742L20.6357 29.3883L20.6406 29.4031C20.6436 29.4119 20.6485 29.4218 20.6695 29.4566L20.6721 29.4611C20.6878 29.4871 20.7133 29.5293 20.734 29.5818C21.1299 30.2769 20.8377 31.1386 20.1617 31.507L20.1618 31.5069L20.0417 31.2876L20.1612 31.5072L22.4408 38.6278ZM22.4408 38.6278L14.9956 34.3365L22.4408 38.6278ZM36.4008 17.9795L27.5328 12.8506M36.4008 17.9795C37.5638 18.6501 38.2874 19.888 38.2874 21.2292V33.712M36.4008 17.9795L36.5257 17.7629M36.4008 17.9795L36.526 17.7631L36.5257 17.7629M27.5328 12.8506L42.0606 34.4599C41.0527 34.7694 39.9673 34.6405 39.0369 34.1247L38.2874 33.712M27.5328 12.8506L27.5492 12.7657L27.3038 12.7181M27.5328 12.8506L27.3038 12.7181M38.2874 33.712H38.5374V33.5643M38.2874 33.712L38.408 33.493L38.5374 33.5643M38.5374 33.5643V21.2292C38.5374 19.7975 37.7651 18.4776 36.5257 17.7629M38.5374 33.5643L39.1575 33.9057L39.1581 33.906C40.0318 34.3904 41.0471 34.5096 41.9873 34.221L41.9905 34.2199L43.9574 33.6455M36.5257 17.7629L27.429 12.5017L27.1252 12.326L27.0584 12.6705L26.4381 15.8686L26.4042 16.0437L26.5587 16.1328L33.2264 19.9757M33.2264 19.9757L28.3473 31.5072L33.8259 34.4988L33.8263 34.499L37.0032 36.226L37.0051 36.227L37.701 36.6129L37.7015 36.6132C38.7219 37.1759 39.8233 37.4438 40.9493 37.4438C41.5907 37.4438 42.2347 37.3637 42.88 37.1759L42.8802 37.1758L44.8473 36.6013C45.6001 37.4123 46.7202 37.858 47.9386 37.6731C49.4473 37.4497 50.6421 36.199 50.837 34.6985L50.8373 34.6957C51.0879 32.584 49.4437 30.8055 47.3845 30.8055C45.6881 30.8055 44.2506 32.0272 43.9574 33.6455M33.2264 19.9757C34.3129 20.6021 34.9879 21.7581 34.9879 23.0087V31.6144L29.827 28.7986L29.8268 28.7985C29.1452 28.4274 28.2346 28.6654 27.8815 29.3703L27.8735 29.3862L27.8679 29.4031C27.8649 29.4119 27.86 29.4218 27.839 29.4566L27.8364 29.4611C27.8207 29.4871 27.7952 29.5293 27.7745 29.5818C27.3786 30.277 27.6708 31.1388 28.347 31.5071L33.2264 19.9757ZM33.2264 19.9757L33.2264 19.9757L33.3513 19.7591L33.2264 19.9757ZM43.9574 33.6455C43.9476 33.6993 43.9391 33.7537 43.932 33.8084L44.1798 33.841L44.1097 33.601L43.9574 33.6455ZM27.3038 12.7181L27.1787 12.9345L27.2535 12.9778M27.3038 12.7181L27.2535 12.9778M27.2535 12.9778L26.6836 15.9162L27.2535 12.9778ZM13.2185 31.0612L13.3914 31.0051V30.8234V23.0345C13.3914 21.7839 14.0664 20.6279 15.1529 20.0014L15.154 20.0008L22.557 15.681V22.0803C22.557 22.8928 23.2424 23.5449 24.0521 23.5166H24.0523H24.0526H24.0529H24.0532H24.0534H24.0537H24.054H24.0543H24.0546H24.0549H24.0552H24.0555H24.0558H24.056H24.0563H24.0566H24.0569H24.0572H24.0575H24.0578H24.058H24.0583H24.0586H24.0589H24.0592H24.0594H24.0597H24.06H24.0603H24.0606H24.0608H24.0611H24.0614H24.0617H24.062H24.0622H24.0625H24.0628H24.0631H24.0633H24.0636H24.0639H24.0641H24.0644H24.0647H24.065H24.0652H24.0655H24.0658H24.066H24.0663H24.0666H24.0668H24.0671H24.0674H24.0677H24.0679H24.0682H24.0684H24.0687H24.069H24.0692H24.0695H24.0698H24.07H24.0703H24.0706H24.0708H24.0711H24.0713H24.0716H24.0719H24.0721H24.0724H24.0726H24.0729H24.0732H24.0734H24.0737H24.0739H24.0742H24.0744H24.0747H24.075H24.0752H24.0755H24.0757H24.076H24.0762H24.0765H24.0767H24.077H24.0772H24.0775H24.0777H24.078H24.0783H24.0785H24.0788H24.079H24.0793H24.0795H24.0798H24.08H24.0802H24.0805H24.0807H24.081H24.0812H24.0815H24.0817H24.082H24.0822H24.0825H24.0827H24.083H24.0832H24.0835H24.0837H24.0839H24.0842H24.0844H24.0847H24.0849H24.0852H24.0854H24.0856H24.0859H24.0861H24.0864H24.0866H24.0869H24.0871H24.0873H24.0876H24.0878H24.0881H24.0883H24.0885H24.0888H24.089H24.0893H24.0895H24.0897H24.09H24.0902H24.0904H24.0907H24.0909H24.0912H24.0914H24.0916H24.0919H24.0921H24.0923H24.0926H24.0928H24.093H24.0933H24.0935H24.0937H24.094H24.0942H24.0944H24.0947H24.0949H24.0951H24.0954H24.0956H24.0958H24.0961H24.0963H24.0965H24.0968H24.097H24.0972H24.0975H24.0977H24.0979H24.0982H24.0984H24.0986H24.0989H24.0991H24.0993H24.0996H24.0998H24.1H24.1002H24.1005H24.1007H24.1009H24.1012H24.1014H24.1016H24.1019H24.1021H24.1023H24.1025H24.1028H24.103H24.1032H24.1035H24.1037H24.1039H24.1041H24.1044H24.1046H24.1048H24.1051H24.1053H24.1055H24.1057H24.106H24.1062H24.1064H24.1067H24.1069H24.1071H24.1073H24.1076H24.1078H24.108H24.1082H24.1085H24.1087H24.1089H24.1092H24.1094H24.1096H24.1098H24.1101H24.1103H24.1105H24.1107H24.111H24.1112H24.1114H24.1117H24.1119H24.1121H24.1123H24.1126H24.1128H24.113H24.1132H24.1135H24.1137H24.1139H24.1142H24.1144H24.1146H24.1148H24.1151H24.1153H24.1155H24.1157H24.116H24.1162H24.1164H24.1167H24.1169H24.1171H24.1173H24.1176H24.1178H24.118H24.1183H24.1185H24.1187H24.1189H24.1192H24.1194H24.1196H24.1198H24.1201H24.1203H24.1205H24.1208H24.121H24.1212H24.1215H24.1217H24.1219H24.1221H24.1224H24.1226H24.1228H24.1231H24.1233H24.1235H24.1237H24.124H24.1242H24.1244H24.1247H24.1249H24.1251H24.1254H24.1256H24.1258H24.1261H24.1263H24.1265H24.1267H24.127H24.1272H24.1274H24.1277H24.1279H24.1281H24.1284H24.1286H24.1288H24.1291H24.1293H24.1295H24.1298H24.13H24.1302H24.1305H24.1307H24.1309H24.1312H24.1314H24.1317H24.1319H24.1321H24.1324H24.1326H24.1328H24.1331H24.1333H24.1335H24.1338H24.134H24.1343H24.1345H24.1347H24.135H24.1352H24.1354H24.1357H24.1359H24.1362H24.1364H24.1366H24.1369H24.1371H24.1374H24.1376H24.1378H24.1381H24.1383H24.1386H24.1388H24.1391H24.1393H24.1395H24.1398H24.14H24.1403H24.1405H24.1408H24.141H24.1413H24.1415H24.1417H24.142H24.1422H24.1425H24.1427H24.143H24.1432H24.1435H24.1437H24.144H24.1442H24.1445H24.1447H24.145H24.1452H24.1455H24.1457H24.146H24.1462H24.1465H24.1467H24.147H24.1472H24.1475H24.1477H24.148H24.1482H24.1485H24.1488H24.149H24.1493H24.1495H24.1498H24.15H24.1503H24.1505H24.1508H24.1511H24.1513H24.1516H24.1518H24.1521H24.1524H24.1526H24.1529H24.1531H24.1534H24.1537H24.1539H24.1542H24.1544H24.1547H24.155H24.1552H24.1555H24.1558H24.156H24.1563H24.1566H24.1568H24.1571H24.1574H24.1576H24.1579H24.1582H24.1584H24.1587H24.159H24.1593H24.1595H24.1598H24.1601H24.1603H24.1606H24.1609H24.1612H24.1614H24.1617H24.162H24.1623H24.1625H24.1628H24.1631H24.1634H24.1637H24.1639H24.1642H24.1645H24.1648H24.1651H24.1653H24.1656H24.1659H24.1662H24.1665H24.1667H24.167H24.1673H24.1676H24.1679H24.1682H24.1685H24.1688H24.169H24.1693H24.1696H24.1699H24.1702H24.1705H24.1708H24.1711H24.1714H24.1717H24.1719H24.1722H24.1725H24.1728H24.1731H24.1734H24.1737H24.174H24.1743H24.1746H24.1749H24.1752H24.1755H24.1758H24.1761H24.1764H24.1767H24.1769H24.177H24.1772H24.1773H24.1775H24.1776H24.1778H24.1779H24.1781H24.1782H24.1784H24.1785H24.1786H24.1788H24.1789H24.1791H24.1792H24.1793H24.1795H24.1796H24.1798H24.1799H24.18H24.1802H24.1803H24.1805H24.1806H24.1807H24.1809H24.181H24.1811H24.1813H24.1814H24.1815H24.1817H24.1818H24.1819H24.1821H24.1822H24.1823H24.1824H24.1826H24.1827H24.1828H24.183H24.1831H24.1832H24.1833H24.1835H24.1836H24.1837H24.1838H24.1839H24.1841H24.1842H24.1843H24.1844H24.1845H24.1847H24.1848H24.1849H24.185H24.1851H24.1853H24.1854H24.1855H24.1856H24.1857H24.1858H24.1859H24.186H24.1862H24.1863H24.1864H24.1865H24.1866H24.1867H24.1868H24.1869H24.187H24.1871H24.1873H24.1874H24.1875H24.1876H24.1877H24.1878H24.1879H24.188H24.1881H24.1882H24.1883H24.1884H24.1885H24.1886H24.1887H24.1888H24.1889H24.189H24.1891H24.1892H24.1893H24.1894H24.1895H24.1896H24.1897H24.1898H24.1899H24.19H24.1901H24.1901H24.1902H24.1903H24.1904H24.1905H24.1906H24.1907H24.1908H24.1909H24.191H24.1911H24.1911H24.1912H24.1913H24.1914H24.1915H24.1916H24.1917H24.1917H24.1918H24.1919H24.192H24.1921H24.1922H24.1922H24.1923H24.1924H24.1925H24.1926H24.1927H24.1927H24.1928H24.1929H24.193H24.193H24.1931H24.1932H24.1933H24.1934H24.1934H24.1935H24.1936H24.1937H24.1937H24.1938H24.1939H24.1939H24.194H24.1941H24.1942H24.1942H24.1943H24.1944H24.1944H24.1945H24.1946H24.1947H24.1947H24.1948H24.1949H24.1949H24.195H24.1951H24.1951H24.1952H24.1953H24.1953H24.1954H24.1955H24.1955H24.1956H24.1956H24.1957H24.1958H24.1958H24.1959H24.196H24.196H24.1961H24.1961H24.1962H24.1963H24.1963H24.1964H24.1964H24.1965H24.1965H24.1966H24.1967H24.1967H24.1968H24.1968H24.1969H24.1969H24.197H24.197H24.1971H24.1972H24.1972H24.1973H24.1973H24.1974H24.1974H24.1975H24.1975H24.1976H24.1976H24.1977H24.1977H24.1978H24.1978H24.1979H24.1979H24.198H24.198H24.1981H24.1981H24.1982H24.1982H24.1982H24.1983H24.1983H24.1984H24.1984H24.1985H24.1985H24.1986H24.1986H24.1986H24.1987H24.1987H24.1988H24.1988H24.1989H24.1989H24.1989H24.199H24.199H24.1991H24.1991H24.1991H24.1992H24.1992H24.1993H24.1993H24.1993H24.1994H24.1994H24.1994H24.1995H24.1995H24.1996H24.1996H24.1996H24.1997H24.1997H24.1997H24.1998H24.1998H24.1998H24.1999H24.1999H24.1999H24.2H24.2H24.2H24.2001H24.2001H24.2001H24.2002H24.2002H24.2002H24.2003H24.2003H24.2003H24.2003H24.2004H24.2004H24.2004H24.2005H24.2005H24.2005H24.2005H24.2006H24.2006H24.2006H24.2007H24.2007H24.2007H24.2007H24.2008H24.2008H24.2008H24.2008H24.2009H24.2009H24.2009H24.2009H24.201H24.201H24.201H24.201H24.201H24.2011H24.2011H24.2011H24.2011H24.2012H24.2012H24.2012H24.2012H24.2012H24.2013H24.2013H24.2013H24.2013H24.2013H24.2014H24.2014H24.2014H24.2014H24.2014H24.2015H24.2015H24.2015H24.2015H24.2015H24.2015H24.2016H24.2016H24.2016H24.2016H24.2016H24.2017H24.2017H24.2017H24.2017H24.2017H24.2017H24.2017H24.2018H24.2018H24.2018H24.2018H24.2019H24.2019H24.2019H24.2019H24.202H24.202H24.202H24.202H24.2021H24.2021H24.2021H24.2021H24.2021H24.2022H24.2022H24.2022H24.2022H24.2022H24.2022H24.2023H24.2023H24.2023H24.2023H24.2023H24.2023H24.2024H24.2024H24.2024H24.2024H24.2024H24.2024H24.2025H24.2025H24.2025H24.2025H24.2025H24.2025H24.2026C24.998 23.5166 25.6931 22.903 25.6931 22.0803V11.2996C25.6931 9.48119 24.996 7.76692 23.7082 6.48126C23.7079 6.48094 23.7075 6.48062 23.7072 6.4803L22.6615 5.41346C23.013 4.49049 22.9761 3.3421 22.3212 2.32078C21.8431 1.53676 21.0065 0.982166 20.1142 0.815009C17.7802 0.371346 15.7469 2.25857 15.9419 4.53791L15.9419 4.53791L15.9423 4.54203C16.0817 5.90528 17.0544 7.09728 18.363 7.51429C19.0867 7.74641 19.7855 7.71486 20.4112 7.53392L21.545 8.66537C22.247 9.36602 22.6345 10.308 22.6345 11.2996V11.5163L11.8019 17.7629C10.5625 18.4776 9.79016 19.7975 9.79016 21.2292V31.8293V32.1732L10.1173 32.0671L13.2185 31.0612ZM38.634 18.1147L39.1919 15.7667C40.0625 15.5547 40.8369 14.9235 41.1837 13.9917L41.1841 13.9906C41.609 12.8316 41.2154 11.4492 40.1922 10.7108C38.7789 9.66808 36.8243 10.1183 36.0017 11.5903L36.0015 11.5907C35.3228 12.8098 35.6083 14.2938 36.6375 15.1616L36.2353 16.8379L36.1918 17.019L36.3528 17.1125L37.7742 17.9378L37.7759 17.9388C37.9471 18.0364 38.0895 18.1315 38.231 18.2491L38.5409 18.5068L38.634 18.1147ZM24.5405 44.6414L26.3403 46.4861C25.8771 47.7768 26.3943 49.2402 27.6216 49.9208C29.0908 50.7385 30.989 50.1479 31.6692 48.5358L31.6697 48.5346C32.1499 47.3788 31.8149 45.9955 30.8465 45.2267C30.0689 44.5856 29.091 44.4519 28.2276 44.6984L26.8876 43.3372L26.7523 43.1997L26.585 43.2957L25.5512 43.8889L25.5499 43.8897C25.2682 44.0537 24.9839 44.1494 24.6633 44.2232L24.2299 44.323L24.5405 44.6414ZM4.45116 19.0191L4.44866 19.0192C3.67572 19.0478 2.96824 19.4185 2.46318 19.9785L2.4631 19.9784L2.45842 19.9839C1.18865 21.4764 1.69532 23.6823 3.42332 24.474C4.47333 24.9554 5.71703 24.7291 6.5384 23.9676C7.0049 23.5529 7.25681 23.0456 7.38244 22.5399L8.94284 22.1152L9.12719 22.065V21.8739V20.3265C9.12719 20.1142 9.15067 19.9283 9.19723 19.7425L9.30096 19.3284L8.88906 19.4405L6.77266 20.0165C6.24915 19.4062 5.42004 18.993 4.45116 19.0191ZM24.2026 24.8994C22.8503 24.8994 21.7558 25.9909 21.7558 27.3416C21.7558 28.6924 22.8503 29.7839 24.2026 29.7839C25.5548 29.7839 26.6493 28.6924 26.6493 27.3416C26.6493 25.989 25.5271 24.8994 24.2026 24.8994Z" stroke="url(#paint6_radial_39_312)" stroke-width="0.5"/>
</g>
<defs>
<filter id="filter0_d_39_312" x="0.5" y="0.499817" width="51.6123" height="52.037" filterUnits="userSpaceOnUse" color-interpolation-filters="sRGB">
<feFlood flood-opacity="0" result="BackgroundImageFix"/>
<feColorMatrix in="SourceAlpha" type="matrix" values="0 0 0 0 0 0 0 0 0 0 0 0 0 0 0 0 0 0 127 0" result="hardAlpha"/>
<feOffset dy="1"/>
<feGaussianBlur stdDeviation="0.5"/>
<feComposite in2="hardAlpha" operator="out"/>
<feColorMatrix type="matrix" values="0 0 0 0 0 0 0 0 0 0 0 0 0 0 0 0 0 0 0.25 0"/>
<feBlend mode="normal" in2="BackgroundImageFix" result="effect1_dropShadow_39_312"/>
<feBlend mode="normal" in="SourceGraphic" in2="effect1_dropShadow_39_312" result="shape"/>
</filter>
<linearGradient id="paint0_linear_39_312" x1="59" y1="17.4999" x2="137" y2="17.9999" gradientUnits="userSpaceOnUse">
<stop stop-color="#F57041"/>
<stop offset="1" stop-color="#FBA525"/>
</linearGradient>
<linearGradient id="paint1_linear_39_312" x1="59" y1="17.4999" x2="137" y2="17.9999" gradientUnits="userSpaceOnUse">
<stop stop-color="#F57041"/>
<stop offset="1" stop-color="#FBA525"/>
</linearGradient>
<linearGradient id="paint2_linear_39_312" x1="59" y1="17.4999" x2="137" y2="17.9999" gradientUnits="userSpaceOnUse">
<stop stop-color="#F57041"/>
<stop offset="1" stop-color="#FBA525"/>
</linearGradient>
<linearGradient id="paint3_linear_39_312" x1="59" y1="17.4999" x2="137" y2="17.9999" gradientUnits="userSpaceOnUse">
<stop stop-color="#F57041"/>
<stop offset="1" stop-color="#FBA525"/>
</linearGradient>
<linearGradient id="paint4_linear_39_312" x1="59" y1="17.4999" x2="137" y2="17.9999" gradientUnits="userSpaceOnUse">
<stop stop-color="#F57041"/>
<stop offset="1" stop-color="#FBA525"/>
</linearGradient>
<radialGradient id="paint5_radial_39_312" cx="0" cy="0" r="1" gradientUnits="userSpaceOnUse" gradientTransform="translate(24.75 19.5) rotate(142.431) scale(28.7021 28.4536)">
<stop stop-color="#FEBA1A"/>
<stop offset="1" stop-color="#F56F42"/>
</radialGradient>
<radialGradient id="paint6_radial_39_312" cx="0" cy="0" r="1" gradientUnits="userSpaceOnUse" gradientTransform="translate(26.3063 25.5186) rotate(90) scale(24.5186 24.3063)">
<stop stop-color="#FEB91A"/>
<stop offset="1" stop-color="#F56F42"/>
</radialGradient>
</defs>
</svg>
