<svg width="20" height="25" viewBox="0 0 20 25" fill="none" xmlns="http://www.w3.org/2000/svg">
<path d="M16.7038 13.072C16.7161 12.1301 16.9664 11.2065 17.4313 10.3873C17.8963 9.56804 18.5609 8.87967 19.3633 8.38619C18.8535 7.65803 18.181 7.05874 17.3992 6.63588C16.6173 6.21301 15.7477 5.97823 14.8593 5.95015C12.9628 5.75147 11.1251 7.08463 10.1588 7.08463C9.17443 7.08463 7.68662 5.96934 6.08592 6.00321C5.04998 6.03664 4.04036 6.33788 3.15547 6.87756C2.27057 7.41724 1.54058 8.17696 1.03662 9.08268C-1.14655 12.862 0.482362 18.4171 2.57297 21.4728C3.61941 22.9685 4.84194 24.6392 6.44264 24.5805C8.00834 24.515 8.59308 23.5815 10.4839 23.5815C12.3555 23.5815 12.9041 24.5805 14.5364 24.5433C16.2173 24.515 17.275 23.0397 18.2842 21.5293C19.0365 20.4635 19.6156 19.2855 20 18.0389C19.0236 17.6261 18.1903 16.935 17.6041 16.0517C17.0179 15.1684 16.7048 14.1321 16.7038 13.072Z" fill="#0F0F0F"/>
<path d="M13.6196 3.93965C14.5357 2.84021 14.9873 1.42696 14.8782 0C13.4784 0.146948 12.1854 0.816033 11.2569 1.87387C10.8031 2.39028 10.4554 2.99104 10.2339 3.64184C10.0123 4.29264 9.9211 4.98072 9.96553 5.66678C10.6656 5.674 11.3581 5.52232 11.991 5.22315C12.624 4.92399 13.1808 4.48515 13.6196 3.93965Z" fill="#0F0F0F"/>
</svg>
