<svg width="20" height="20" viewBox="0 0 20 20" fill="none" xmlns="http://www.w3.org/2000/svg">
<path fill-rule="evenodd" clip-rule="evenodd" d="M7.16448 1.51849C7.16448 1.00352 6.74585 0.586125 6.22934 0.586125C5.71283 0.586125 5.29404 1.00352 5.29404 1.51849V1.99039C4.83031 1.99757 4.41821 2.01412 4.05517 2.0519C3.38243 2.12214 2.77245 2.2734 2.22997 2.64772C1.85986 2.90309 1.53908 3.22295 1.28293 3.59195C0.907492 4.13267 0.755797 4.74083 0.685497 5.41158C0.623811 6.00068 0.618644 6.71966 0.618175 7.5793V7.72229V7.82078V13.2399C0.618019 14.5024 0.618019 15.5436 0.729176 16.3676C0.845817 17.2327 1.10023 17.9968 1.71378 18.6086C2.32733 19.2203 3.09373 19.474 3.96138 19.5903C4.78786 19.7011 5.83214 19.7009 7.09842 19.7009H12.8415C14.1079 19.7009 15.1521 19.7011 15.9786 19.5903C16.8463 19.474 17.6127 19.2203 18.2262 18.6086C18.8398 17.9968 19.0942 17.2327 19.2108 16.3676C19.322 15.5436 19.3218 14.5024 19.3218 13.2399V7.82078V7.73555V7.5793C19.3214 6.71966 19.3162 6.00068 19.2545 5.41157C19.1842 4.74083 19.0325 4.13266 18.6571 3.59195C18.4009 3.22293 18.08 2.9031 17.71 2.64771C17.1676 2.27339 16.5576 2.12215 15.8848 2.05189C15.5218 2.01412 15.1097 1.99757 14.646 1.99039V1.51849C14.646 1.00351 14.2272 0.586121 13.7107 0.586121C13.1942 0.586121 12.7755 1.00351 12.7755 1.51849V1.98476H7.16435L7.16448 1.51849ZM17.4514 7.57938C17.4507 6.70615 17.4448 6.08847 17.3942 5.6055C17.3397 5.08681 17.2422 4.83078 17.119 4.65315C16.9909 4.4688 16.8306 4.3088 16.6456 4.18114C16.4676 4.05829 16.2106 3.96104 15.6904 3.90672C15.3997 3.87643 15.0602 3.86223 14.6459 3.85552V4.31587C14.6459 4.83084 14.2272 5.2484 13.7106 5.2484C13.1941 5.2484 12.7755 4.83084 12.7755 4.31587V3.84976H7.16432V4.31587C7.16432 4.83084 6.74569 5.2484 6.22918 5.2484C5.71267 5.2484 5.29388 4.83084 5.29388 4.31587V3.85552C4.87961 3.86223 4.54018 3.87643 4.24944 3.90672C3.7292 3.96104 3.47225 4.05829 3.29425 4.18114C3.1092 4.30882 2.94888 4.46882 2.82083 4.65315C2.69762 4.83079 2.59992 5.08681 2.54559 5.6055C2.49503 6.08847 2.48907 6.70615 2.48845 7.57938H17.4514ZM2.48837 9.44428V13.1739C2.48837 14.519 2.4904 15.4339 2.58278 16.119C2.67155 16.7774 2.82811 17.0823 3.03616 17.2897C3.24439 17.4973 3.55014 17.6534 4.21054 17.7419C4.89771 17.834 5.81546 17.8361 7.16438 17.8361H12.7756C14.1246 17.8361 15.0423 17.834 15.7294 17.7419C16.3898 17.6534 16.6955 17.4973 16.9036 17.2897C17.1119 17.0823 17.2684 16.7774 17.3572 16.119C17.4495 15.4339 17.4516 14.519 17.4516 13.1739V9.44428H2.48837Z" fill="white"/>
</svg>
