<svg width="19" height="23" viewBox="0 0 19 23" fill="none" xmlns="http://www.w3.org/2000/svg">
<path d="M15.2132 3.03318H11.7063C11.7063 2.15462 11.2607 1.34277 10.5372 0.903491C9.81391 0.464217 8.92271 0.464217 8.19944 0.903491C7.47598 1.34277 7.03035 2.15462 7.03035 3.03318H3.52348C2.59355 3.03318 1.70155 3.42181 1.04382 4.11367C0.386076 4.80552 0.0166016 5.74379 0.0166016 6.72194V19.0182C0.0166016 19.9963 0.386076 20.9346 1.04382 21.6265C1.70155 22.3183 2.59355 22.707 3.52348 22.707H15.2134C16.1433 22.707 17.0353 22.3183 17.6931 21.6265C18.3508 20.9346 18.7203 19.9963 18.7203 19.0182V6.72194C18.7203 5.74379 18.3508 4.80552 17.6931 4.11367C17.0353 3.42181 16.1433 3.03318 15.2134 3.03318H15.2132ZM17.5512 19.0177L17.551 19.0179C17.5504 19.6698 17.3038 20.2949 16.8654 20.7558C16.4273 21.2169 15.833 21.4763 15.2132 21.4769H3.52328C2.90352 21.4763 2.3092 21.2169 1.87104 20.7558C1.43268 20.2949 1.1861 19.6698 1.1855 19.0179V6.72162C1.18608 6.06971 1.43266 5.44457 1.87104 4.98369C2.30921 4.52259 2.90352 4.26322 3.52328 4.26258H4.69237C4.69237 4.58865 4.81546 4.90132 5.03465 5.13187C5.25382 5.36262 5.55126 5.4921 5.86127 5.4921H12.875C13.185 5.4921 13.4825 5.36262 13.7016 5.13187C13.9208 4.90132 14.0439 4.58862 14.0439 4.26258H15.213C15.8328 4.2632 16.4271 4.52257 16.8652 4.98369C17.3036 5.44458 17.5502 6.06971 17.5508 6.72162L17.5512 19.0177ZM9.36813 9.1813C9.9881 9.1813 10.5828 9.44046 11.0214 9.90156C11.4597 10.3629 11.7061 10.9882 11.7061 11.6406C11.7061 12.2927 11.4597 12.9182 11.0214 13.3793C10.5828 13.8406 9.9881 14.0996 9.36813 14.0996C8.74817 14.0996 8.15345 13.8406 7.71489 13.3793C7.27653 12.9182 7.03015 12.2927 7.03015 11.6406C7.03093 10.9884 7.27751 10.3635 7.7157 9.9024C8.15406 9.44131 8.74837 9.18214 9.36813 9.1813ZM9.36813 7.95178C8.43801 7.95178 7.54601 8.34042 6.88847 9.03206C6.23074 9.72392 5.86126 10.6622 5.86126 11.6406C5.86126 12.6187 6.23074 13.557 6.88847 14.2488C7.54601 14.9407 8.43801 15.3293 9.36813 15.3293C10.2983 15.3293 11.1903 14.9407 11.8478 14.2488C12.5055 13.557 12.875 12.6187 12.875 11.6406C12.875 10.6622 12.5055 9.72392 11.8478 9.03206C11.1903 8.34042 10.2983 7.95178 9.36813 7.95178ZM12.875 17.7887V17.7885C13.4948 17.7893 14.0891 18.0487 14.5275 18.5096C14.9656 18.9707 15.2122 19.5958 15.213 20.2477C15.2126 20.5738 15.0893 20.8862 14.8701 21.1168C14.651 21.3473 14.3539 21.477 14.0439 21.4772H4.69258C4.3826 21.477 4.08554 21.3473 3.86636 21.1168C3.64718 20.8862 3.52389 20.5738 3.5235 20.2477C3.52428 19.5958 3.77086 18.9707 4.20904 18.5096C4.6474 18.0487 5.24172 17.7893 5.86148 17.7885H12.8752M12.8752 16.5589H5.86148C4.93136 16.5589 4.03936 16.9476 3.38182 17.6394C2.72408 18.3311 2.3546 19.2694 2.3546 20.2477C2.3546 20.8998 2.60099 21.5254 3.03935 21.9867C3.4779 22.4478 4.07242 22.707 4.69259 22.707H14.0444H14.0442C14.6644 22.707 15.2589 22.4478 15.6975 21.9867C16.1358 21.5254 16.3822 20.8998 16.3822 20.2477C16.3822 19.2694 16.0127 18.3311 15.355 17.6394C14.6975 16.9476 13.8055 16.5589 12.8753 16.5589H12.8752Z" fill="white"/>
</svg>
