<svg width="54" height="55" viewBox="0 0 54 55" fill="none" xmlns="http://www.w3.org/2000/svg">
<rect width="54" height="54.9666" rx="4" fill="#FFB1BC"/>
<g clip-path="url(#clip0_112_1662)">
<path d="M26.3915 12C26.797 12 27.2026 12 27.6081 12C27.6561 12.0144 27.7034 12.0371 27.7522 12.0409C29.5915 12.193 31.2419 12.8348 32.675 13.9867C34.6881 15.6056 35.8727 17.7035 36.0656 20.276C36.1769 21.7617 36.1212 23.2602 36.1273 24.7527C36.1319 25.9553 35.3612 26.7076 34.1446 26.7121C33.8336 26.7136 33.5226 26.7121 33.1842 26.7121C33.0134 28.3628 32.4234 29.8038 31.2632 30.9898C31.5506 31.5627 31.8471 32.1137 32.1048 32.6821C32.2328 32.9644 32.4165 33.1059 32.7093 33.202C33.7856 33.5539 34.9031 33.8332 35.9131 34.3267C39.1406 35.9047 40.7292 38.5922 40.996 42.1122C41.0257 42.502 40.9251 42.8032 40.5737 43H13.4274C13.076 42.8032 12.9815 42.502 13.0028 42.1122C13.0593 41.0981 13.2361 40.1089 13.6188 39.1674C14.6166 36.7107 16.2867 34.914 18.8366 34.0111C19.7132 33.7008 20.6035 33.4275 21.4832 33.1233C21.6006 33.0824 21.7271 32.9787 21.7851 32.8698C22.0793 32.3188 22.3446 31.7527 22.638 31.2002C22.7257 31.0344 22.6815 30.9466 22.5771 30.8104C22.247 30.379 21.9085 29.9468 21.641 29.4776C21.4878 29.2082 21.3376 29.1196 21.038 29.1264C20.2109 29.1461 19.563 28.7972 19.2543 28.0222C19.111 27.662 19.1468 27.2336 19.082 26.8393C19.0645 26.7318 19.0043 26.5865 18.9189 26.5411C18.213 26.1672 17.8715 25.5875 17.8708 24.8004C17.87 23.6409 17.8753 22.4807 17.8692 21.3212C17.8608 19.7629 18.1658 18.2742 18.9059 16.8945C20.1294 14.6126 21.9893 13.0853 24.4904 12.3663C25.1078 12.1892 25.7565 12.1196 26.3915 12ZM22.2264 27.9238C22.8195 27.9238 23.3264 27.9178 23.8318 27.9276C23.9949 27.9306 24.0749 27.8822 24.1527 27.7308C24.4896 27.0694 25.0491 26.7364 25.7908 26.7159C26.1964 26.7046 26.6026 26.7031 27.0082 26.7167C28.0426 26.7507 28.8262 27.5424 28.8239 28.5369C28.8216 29.5291 28.0304 30.3147 26.9952 30.3427C26.5996 30.3533 26.204 30.3518 25.8084 30.3427C25.0529 30.326 24.4965 29.9839 24.142 29.3172C24.107 29.2513 24.0513 29.1476 24.0018 29.1454C23.626 29.131 23.2494 29.1378 22.8309 29.1378C23.3942 30.049 24.0925 30.7256 25.0171 31.1328C27.9138 32.4096 30.9286 30.7612 31.7267 27.7974C31.9973 26.7908 32.0933 25.7351 32.2298 24.6974C32.3335 23.9103 32.3754 23.1156 32.4463 22.3149C32.3594 22.2945 32.3129 22.2801 32.2649 22.2718C31.6863 22.1704 31.1009 22.1 30.5307 21.963C28.7134 21.5263 27.1088 20.6802 25.7184 19.4321C25.6323 19.3542 25.4882 19.2876 25.3784 19.2967C24.7549 19.3474 24.1763 19.5479 23.629 19.8537C22.7364 20.3532 22.2081 21.188 21.6227 21.9713C21.5709 22.0409 21.5701 22.1628 21.577 22.2582C21.6379 23.0929 21.6814 23.93 21.7797 24.7603C21.9032 25.8085 22.0732 26.8521 22.2272 27.9238H22.2264ZM21.6631 34.3463C20.9801 34.5734 20.2559 34.8307 19.5211 35.0563C17.6108 35.6413 16.2136 36.8431 15.2401 38.5543C14.6753 39.5473 14.3406 40.6152 14.2545 41.7739H25.8968C25.1071 40.5584 24.2838 39.4088 23.5878 38.1873C22.8865 36.9567 22.3118 35.6549 21.6631 34.3463ZM32.2557 34.313C32.1055 34.6869 31.9714 35.0328 31.8296 35.3749C31.0887 37.1625 30.1221 38.8238 28.9901 40.3942C28.6768 40.8286 28.4085 41.2956 28.1089 41.7648H39.7573C39.521 39.6003 38.6169 37.8149 36.9834 36.3943C35.6257 35.2137 33.8847 34.9246 32.2557 34.313ZM21.5701 19.9165C21.6029 19.9422 21.6364 19.968 21.6692 19.9937C21.6966 19.9392 21.7126 19.8749 21.753 19.8317C22.6762 18.8357 23.8219 18.2817 25.1665 18.0887C25.7237 18.0085 26.1392 18.144 26.5615 18.5345C28.2149 20.0656 30.2105 20.8451 32.4425 21.0593C32.4539 21.0351 32.4676 21.0169 32.4691 20.9988C32.6742 18.8569 31.3394 16.7438 29.3225 15.9651C28.3856 15.6033 27.4168 15.6222 26.4449 15.6351C25.0491 15.654 23.8577 16.1626 22.8919 17.1654C22.1494 17.9366 21.7096 18.8592 21.5701 19.9173V19.9165ZM20.2956 20.4629C20.3055 20.3449 20.3123 20.2457 20.323 20.1473C20.6043 17.512 21.9787 15.704 24.4713 14.7602C25.6094 14.3295 26.8062 14.3697 27.9885 14.4491C30.8028 14.6368 33.1003 16.7242 33.5889 19.4912C33.6461 19.8143 33.6758 20.1413 33.7178 20.4622H34.8566C34.6706 16.812 31.4789 13.1973 26.9647 13.2185C22.3865 13.2405 19.3016 16.9278 19.1445 20.4629H20.2956ZM26.9411 35.5694C26.236 36.3118 25.5515 37.0255 24.8814 37.7521C24.8342 37.8036 24.8601 37.9761 24.9104 38.0548C25.585 39.0955 26.2711 40.1293 26.9548 41.1639C26.9632 41.1768 26.9891 41.1783 27.0189 41.1896C27.7285 40.118 28.4413 39.0448 29.1433 37.9655C29.1776 37.9125 29.1464 37.7695 29.0953 37.718C28.3925 37.0066 27.6805 36.3043 26.9411 35.5701V35.5694ZM27.82 34.646C28.5061 35.328 29.183 36.0015 29.9155 36.7296C30.3363 35.7155 30.7563 34.7051 31.1702 33.6932C31.1931 33.6379 31.1809 33.5524 31.1535 33.4964C30.9057 32.9908 30.6511 32.4883 30.382 31.9525C29.5077 32.872 28.6539 33.7696 27.8208 34.646H27.82ZM24.1085 36.7871C24.8136 36.0447 25.4432 35.3824 26.0111 34.7845C25.1414 33.9172 24.3029 33.0817 23.4682 32.2499C23.2806 32.6223 23.0687 33.034 22.8667 33.451C22.8309 33.5244 22.805 33.6334 22.8332 33.703C23.2418 34.7081 23.6603 35.7094 24.1085 36.7879V36.7871ZM20.6005 25.5012C20.4976 24.2108 20.3977 22.9605 20.2978 21.7125H19.0874C19.0874 22.7736 19.0813 23.8097 19.0904 24.8465C19.0942 25.2484 19.3343 25.483 19.7338 25.4997C20.015 25.511 20.2971 25.502 20.5997 25.502L20.6005 25.5012ZM33.3991 25.502C33.656 25.502 33.906 25.5042 34.1561 25.502C34.6881 25.4967 34.91 25.2764 34.9115 24.7428C34.9138 23.8271 34.913 22.9113 34.9115 21.9955C34.9115 21.8987 34.9031 21.8018 34.8978 21.7026H33.701C33.6004 22.9681 33.5013 24.2184 33.3991 25.502ZM26.3785 29.131C26.5912 29.131 26.8054 29.1446 27.0166 29.128C27.3558 29.1015 27.5959 28.851 27.6035 28.5422C27.6111 28.2243 27.3634 27.948 27.0112 27.9322C26.5966 27.9132 26.1796 27.9132 25.7649 27.9322C25.4257 27.948 25.1856 28.2076 25.178 28.5164C25.1703 28.8351 25.4181 29.1 25.7702 29.128C25.9715 29.1438 26.1758 29.131 26.3785 29.1302V29.131ZM27.9725 32.7207H25.8846C26.2063 33.0416 26.5737 33.4079 26.9563 33.7893C27.2712 33.4586 27.6012 33.1112 27.9732 32.7207H27.9725ZM20.3306 26.7212C20.227 27.4296 20.3527 27.945 21.0091 27.8928C20.9382 27.5023 20.8673 27.1133 20.7956 26.7212H20.3306Z" fill="black"/>
<path d="M35.8972 37.1277C35.9886 37.1746 36.1548 37.2299 36.2836 37.3313C36.9506 37.8573 37.4774 38.5021 37.876 39.2506C38.0613 39.598 37.9828 39.95 37.687 40.1233C37.3821 40.3019 37.0352 40.2156 36.8363 39.8622C36.4803 39.2294 36.0313 38.683 35.4726 38.2191C35.2538 38.0374 35.1623 37.7983 35.2805 37.516C35.3796 37.2783 35.5679 37.1633 35.8972 37.127V37.1277Z" fill="black"/>
<path d="M33.7055 37.1822C33.3869 37.1883 33.098 36.9105 33.0919 36.5919C33.0858 36.2755 33.3648 35.9879 33.6857 35.9811C34.0036 35.9751 34.2932 36.2528 34.2993 36.5714C34.3054 36.8886 34.0264 37.1754 33.7055 37.1822Z" fill="black"/>
</g>
<defs>
<clipPath id="clip0_112_1662">
<rect width="28" height="31" fill="white" transform="translate(13 12)"/>
</clipPath>
</defs>
</svg>
