<svg width="17" height="16" viewBox="0 0 17 16" fill="none" xmlns="http://www.w3.org/2000/svg">
<path fill-rule="evenodd" clip-rule="evenodd" d="M15.0414 1.2H1.84141C1.73095 1.2 1.64141 1.28954 1.64141 1.4V14.6C1.64141 14.7105 1.73095 14.8 1.84141 14.8H15.0414C15.1519 14.8 15.2414 14.7105 15.2414 14.6V1.4C15.2414 1.28954 15.1519 1.2 15.0414 1.2ZM1.84141 0C1.06821 0 0.441406 0.626801 0.441406 1.4V14.6C0.441406 15.3732 1.06821 16 1.84141 16H15.0414C15.8146 16 16.4414 15.3732 16.4414 14.6V1.4C16.4414 0.626801 15.8146 0 15.0414 0H1.84141Z" fill="#F56F42"/>
<rect x="3.44141" y="3" width="3" height="1.4" rx="0.7" fill="#F56F42"/>
<rect x="7.44141" y="3" width="6" height="1.4" rx="0.7" fill="#F56F42"/>
<rect x="3.44141" y="6" width="3" height="1.4" rx="0.7" fill="#F56F42"/>
<rect x="7.44141" y="6" width="6" height="1.4" rx="0.7" fill="#F56F42"/>
<rect x="3.44141" y="9" width="3" height="1.4" rx="0.7" fill="#F56F42"/>
<rect x="7.44141" y="9" width="6" height="1.4" rx="0.7" fill="#F56F42"/>
</svg>
