<svg width="59" height="74" viewBox="0 0 59 74" fill="none" xmlns="http://www.w3.org/2000/svg">
<path d="M9.82107 0C4.40539 0 0 4.40105 0 9.81141V63.631C0 69.0413 4.40539 73.4424 9.82107 73.4424H48.9908C54.4016 73.4424 58.8119 69.0413 58.8119 63.631V22.1384C58.8119 22.0253 58.7594 21.921 58.7446 21.8128C58.7304 21.7051 58.7118 21.6193 58.6872 21.5166C58.5794 21.1051 58.3978 20.7111 58.0942 20.4073L38.4905 0.822828C38.4172 0.749604 38.3154 0.752337 38.2421 0.68895C37.786 0.253433 37.1799 0.000429576 36.5475 0.000429576L9.82107 0ZM9.82107 4.89612H34.3062V14.8414C34.3062 20.2124 38.6792 24.5861 44.0507 24.5861H53.91V63.6305C53.91 66.3381 51.7002 68.5458 48.9898 68.5458H9.82009C7.10987 68.5458 4.89996 66.3382 4.89996 63.6305V9.81099C4.89996 7.10343 7.10973 4.8957 9.82009 4.8957L9.82107 4.89612ZM39.2071 8.53925C42.5202 11.8299 47.0197 16.3014 50.4257 19.69H44.0507C41.3798 19.69 39.2071 17.5145 39.2071 14.8414V8.53925Z" fill="#F78138"/>
<path d="M22.2927 60.0001C21.7417 60.0032 21.2122 59.787 20.8211 59.3991L14.6028 53.1807C14.2165 52.7924 14 52.267 14 51.7195C14 51.1715 14.2165 50.6465 14.6028 50.2579L20.8211 44.0395C21.2094 43.6536 21.7348 43.4368 22.2823 43.4368C22.8299 43.4368 23.3553 43.6536 23.7436 44.0395L29.9619 50.2579C30.3482 50.6465 30.5647 51.1715 30.5647 51.7195C30.5647 52.2671 30.3482 52.7924 29.9619 53.1807L23.7436 59.3991C23.3577 59.7818 22.8365 59.9977 22.2927 60.0001ZM18.9968 51.709L22.2927 55.0046L25.5887 51.709L22.2927 48.4131L18.9968 51.709Z" fill="#F56F42"/>
<path d="M34.7302 47.5633C34.1792 47.5664 33.6497 47.3503 33.2586 46.9623L27.0403 40.7439C26.654 40.3556 26.4375 39.8303 26.4375 39.2827C26.4375 38.7348 26.654 38.2098 27.0403 37.8211L33.2586 31.6028C33.6469 31.2169 34.1723 31 34.7198 31C35.2674 31 35.7928 31.2169 36.1811 31.6028L42.3994 37.8211C42.7857 38.2098 43.0022 38.7348 43.0022 39.2827C43.0022 39.8303 42.7857 40.3556 42.3994 40.7439L36.1811 46.9623C35.7952 47.3451 35.274 47.5609 34.7302 47.5633ZM31.4343 39.2723L34.7302 42.5678L38.0262 39.2723L34.7302 35.9764L31.4343 39.2723Z" fill="#F56F42"/>
<path d="M24.3641 51.7092C23.8121 51.7123 23.2814 51.4951 22.89 51.1057C22.499 50.7164 22.279 50.1868 22.2793 49.6347C22.28 49.0826 22.5007 48.5534 22.8925 48.1644L31.1835 39.8734H31.1838C31.7172 39.4164 32.4463 39.2609 33.1198 39.4601C33.7933 39.6593 34.3205 40.1861 34.5196 40.86C34.7188 41.5335 34.5634 42.2626 34.1064 42.7959L25.8153 51.087V51.0873C25.4326 51.4777 24.911 51.7012 24.3641 51.7092Z" fill="#F56F42"/>
</svg>
