<svg width="54" height="55" viewBox="0 0 54 55" fill="none" xmlns="http://www.w3.org/2000/svg">
<rect width="54" height="54.9666" rx="4" fill="#FFB1BC"/>
<g clip-path="url(#clip0_112_1702)">
<path d="M32.7746 10.0003C32.9447 10.1537 33.1217 10.3001 33.283 10.4624C35.7364 12.9406 38.1846 15.4241 40.6424 17.8978C40.8939 18.1515 41.0018 18.4176 41.0009 18.7768C40.9939 25.7696 40.9956 32.7633 40.9956 39.7562C40.9956 40.4471 40.8352 40.605 40.1375 40.605C39.3188 40.605 38.5001 40.605 37.6359 40.605C37.6359 40.7451 37.6359 40.8622 37.6359 40.9802C37.6359 41.766 37.6402 42.5519 37.6341 43.3368C37.6306 43.7777 37.4229 43.9843 36.9907 43.9985C36.9145 44.0012 36.8373 43.9985 36.7611 43.9985C29.1273 43.9985 21.4927 43.9985 13.859 43.9985C13.1455 43.9985 13 43.8504 13 43.1222C13.0009 33.1314 13.0009 23.1398 13.0009 13.1472C13.0009 12.4084 13.1473 12.2629 13.8879 12.262C14.6961 12.262 15.5043 12.262 16.3606 12.262C16.3606 11.7609 16.3755 11.2784 16.3554 10.7968C16.3405 10.442 16.4386 10.1688 16.7586 9.99939C22.0967 9.99939 27.4356 9.99939 32.7737 9.99939L32.7746 10.0003ZM32.0453 11.1551H17.5019V39.4475H39.8517V19.0686C39.6975 19.0686 39.5677 19.0686 39.4371 19.0686C37.2388 19.0686 35.0404 19.0695 32.8421 19.0686C32.2101 19.0686 32.0453 18.8992 32.0453 18.2606C32.0453 16.0254 32.0453 13.7903 32.0453 11.5551V11.1551ZM14.1483 13.4124V42.8419H36.4999V40.605H36.0642C29.7961 40.605 23.528 40.605 17.26 40.605C16.5009 40.605 16.3606 40.4631 16.3606 39.6967C16.3606 31.0754 16.3606 22.4541 16.3606 13.8328V13.4124H14.1483ZM38.9708 17.9173C37.0275 15.9536 35.1 14.0049 33.1866 12.0713V17.9173H38.9708Z" fill="black"/>
<path d="M30.35 35.4993C28.1955 35.4993 26.0409 35.4993 23.8864 35.4985C23.7558 35.4985 23.6208 35.4993 23.4964 35.4683C23.229 35.4 23.087 35.1978 23.0879 34.9335C23.0896 34.6532 23.2457 34.4518 23.5279 34.3897C23.6436 34.364 23.7672 34.3702 23.8873 34.3702C28.2069 34.3702 32.5273 34.3702 36.8468 34.3702C36.9555 34.3702 37.0686 34.3631 37.1738 34.3862C37.4499 34.4483 37.6191 34.6274 37.6278 34.9175C37.6366 35.2093 37.4771 35.3991 37.2045 35.4727C37.0809 35.5064 36.9441 35.4985 36.8135 35.4985C34.659 35.5002 32.5045 35.4993 30.35 35.4993Z" fill="black"/>
<path d="M30.3777 27.5681C32.4989 27.5681 34.621 27.5681 36.7422 27.5681C36.8728 27.5681 37.0051 27.5681 37.1349 27.585C37.4381 27.6231 37.6047 27.8085 37.6275 28.1109C37.6485 28.3859 37.4618 28.613 37.1752 28.6715C37.0586 28.6954 36.9368 28.7008 36.8176 28.7008C32.5094 28.7025 28.2003 28.7017 23.8922 28.7017C23.8703 28.7017 23.8484 28.7017 23.8264 28.7017C23.3531 28.6937 23.0875 28.4914 23.084 28.1367C23.0805 27.7801 23.3435 27.569 23.8177 27.5681C26.0046 27.5655 28.1916 27.5672 30.3794 27.5672L30.3777 27.5681Z" fill="black"/>
<path d="M30.3535 30.9714C32.508 30.9714 34.6625 30.9714 36.817 30.9714C37.3657 30.9714 37.6208 31.1443 37.6296 31.5204C37.6383 31.9062 37.3614 32.1049 36.8091 32.1049C32.5106 32.1049 28.213 32.1049 23.9145 32.104C23.7838 32.104 23.6506 32.1014 23.5244 32.0721C23.2378 32.0056 23.0546 31.767 23.0879 31.4973C23.1238 31.2011 23.2886 31.0122 23.5945 30.9811C23.7137 30.9687 23.8347 30.9723 23.9548 30.9723C26.0874 30.9723 28.22 30.9723 30.3526 30.9723L30.3535 30.9714Z" fill="black"/>
<path d="M30.3438 21.8942C28.2007 21.8942 26.0567 21.8942 23.9136 21.8942C23.804 21.8942 23.6945 21.8986 23.5858 21.8853C23.3018 21.8516 23.0888 21.6352 23.0879 21.3594C23.0879 21.0755 23.2202 20.8706 23.5034 20.7997C23.6182 20.7713 23.7409 20.7642 23.8601 20.7642C28.1911 20.7624 32.5211 20.7624 36.8521 20.7642C36.9713 20.7642 37.094 20.7695 37.2089 20.7988C37.492 20.8733 37.662 21.1137 37.6252 21.3886C37.5875 21.6751 37.4183 21.8454 37.1343 21.8844C37.0265 21.8995 36.9161 21.8942 36.8065 21.8942C34.652 21.8942 32.4975 21.8942 30.343 21.8942H30.3438Z" fill="black"/>
<path d="M30.3785 25.2957C28.224 25.2957 26.0695 25.2957 23.9158 25.2957C23.3531 25.2957 23.0805 25.1086 23.084 24.7281C23.0875 24.3502 23.3654 24.1622 23.9255 24.1622C28.2126 24.1622 32.4989 24.1622 36.786 24.1639C36.9376 24.1639 37.0954 24.1693 37.24 24.2101C37.503 24.2837 37.6389 24.4806 37.6275 24.7547C37.6169 25.0278 37.4671 25.2123 37.2006 25.27C37.0639 25.2993 36.9184 25.2948 36.7764 25.2957C34.6437 25.2975 32.5111 25.2966 30.3785 25.2966V25.2957Z" fill="black"/>
<path d="M21.942 19.6307C21.4179 19.6307 20.8937 19.636 20.3695 19.6289C19.9383 19.6236 19.7192 19.4125 19.7165 18.977C19.7086 17.9055 19.7095 16.8332 19.7165 15.7617C19.7192 15.3218 19.9322 15.1098 20.3652 15.1081C21.4249 15.1027 22.4837 15.1027 23.5435 15.1081C23.9835 15.1098 24.1869 15.3103 24.1895 15.7573C24.1965 16.8288 24.1965 17.9011 24.1895 18.9726C24.1869 19.4293 23.9774 19.6263 23.5154 19.6307C22.9913 19.6351 22.4671 19.6316 21.9429 19.6316L21.942 19.6307ZM20.842 18.4705H23.0491V16.2629H20.842V18.4705Z" fill="black"/>
<path d="M20.8288 21.888C20.6325 21.888 20.4344 21.9004 20.2389 21.8853C19.9339 21.8614 19.7673 21.668 19.7253 21.3744C19.6885 21.1137 19.8778 20.8263 20.1592 20.8015C20.6027 20.7624 21.0532 20.7598 21.4959 20.7961C21.8009 20.821 21.978 21.0977 21.9403 21.3895C21.9008 21.6929 21.7176 21.864 21.4179 21.8862C21.2224 21.9004 21.0252 21.8889 20.828 21.8889C20.828 21.8889 20.828 21.888 20.828 21.8871L20.8288 21.888Z" fill="black"/>
<path d="M20.849 30.9793C21.0453 30.9793 21.2434 30.966 21.4389 30.9829C21.7334 31.0086 21.9341 31.217 21.9429 31.4964C21.9534 31.8033 21.8053 32.0384 21.5081 32.065C21.0655 32.104 20.6149 32.1031 20.1714 32.0676C19.8865 32.0446 19.7051 31.7678 19.7218 31.5044C19.7393 31.217 19.9505 31.0015 20.2591 30.9802C20.4545 30.966 20.6526 30.9776 20.849 30.9776C20.849 30.9776 20.849 30.9793 20.849 30.9802V30.9793Z" fill="black"/>
<path d="M20.8383 35.4967C20.6525 35.4967 20.4658 35.5073 20.2808 35.494C19.9478 35.4701 19.7102 35.219 19.719 34.9192C19.7278 34.6257 19.9548 34.388 20.2747 34.3747C20.6455 34.3596 21.018 34.3596 21.3888 34.3747C21.7166 34.3871 21.934 34.6124 21.9436 34.9139C21.9533 35.227 21.7324 35.4692 21.3949 35.494C21.21 35.5082 21.0233 35.4967 20.8374 35.4967H20.8383Z" fill="black"/>
<path d="M20.8183 25.2788C20.6115 25.2788 20.402 25.2957 20.1969 25.2744C19.9032 25.2451 19.7446 25.0411 19.7279 24.7635C19.7113 24.485 19.848 24.2331 20.1364 24.2091C20.6009 24.171 21.0725 24.1692 21.5362 24.2091C21.8193 24.234 21.9578 24.4761 21.9403 24.7644C21.9228 25.0526 21.7606 25.2416 21.4722 25.2735C21.2566 25.2966 21.0366 25.2779 20.8183 25.2779V25.2788Z" fill="black"/>
<path d="M20.8502 27.5583C21.0615 27.569 21.2815 27.5628 21.4962 27.5947C21.7838 27.6381 21.938 27.8333 21.9424 28.1215C21.9468 28.4089 21.803 28.6395 21.5164 28.6599C21.0624 28.6936 20.6013 28.6936 20.1473 28.6573C19.858 28.6342 19.7178 28.3876 19.7292 28.11C19.7406 27.8324 19.8966 27.6275 20.1893 27.5911C20.405 27.5645 20.625 27.5672 20.8502 27.5574V27.5583Z" fill="black"/>
</g>
<defs>
<clipPath id="clip0_112_1702">
<rect width="28" height="34" fill="white" transform="translate(13 10)"/>
</clipPath>
</defs>
</svg>
