<svg width="60" height="74" viewBox="0 0 60 74" fill="none" xmlns="http://www.w3.org/2000/svg">
<path d="M10.2761 0C4.86047 0 0.455078 4.40105 0.455078 9.81141V63.631C0.455078 69.0413 4.86047 73.4424 10.2761 73.4424H49.4459C54.8567 73.4424 59.267 69.0413 59.267 63.631V22.1384C59.267 22.0253 59.2144 21.9209 59.1997 21.8128C59.1855 21.7051 59.1669 21.6193 59.1422 21.5166C59.0345 21.1051 58.8529 20.7111 58.5493 20.4073L38.9455 0.822828C38.8722 0.749604 38.7705 0.752337 38.6972 0.68895C38.241 0.253433 37.635 0.000429576 37.0026 0.000429576L10.2761 0ZM10.2761 4.89612H34.7613V14.8414C34.7613 20.2124 39.1343 24.5861 44.5057 24.5861H54.365V63.6305C54.365 66.3381 52.1553 68.5458 49.4449 68.5458H10.2752C7.56494 68.5458 5.35504 66.3382 5.35504 63.6305V9.81099C5.35504 7.10343 7.5648 4.8957 10.2752 4.8957L10.2761 4.89612ZM39.6622 8.53925C42.9752 11.8299 47.4747 16.3014 50.8807 19.69H44.5057C41.8349 19.69 39.6622 17.5145 39.6622 14.8414V8.53925ZM41.7971 45.0028C41.1254 45.0077 40.4816 45.288 40.026 45.7678L32.7894 53.4081L36.3503 56.7741L39.3652 53.5999V63.7172H44.2661V53.4944L47.4824 56.7933L50.9957 53.3895L43.5677 45.7486C43.1071 45.2738 42.4633 45.0027 41.8064 45.0027L41.7971 45.0028Z" fill="#F78138"/>
</svg>
