<svg width="27" height="14" viewBox="0 0 27 14" fill="none" xmlns="http://www.w3.org/2000/svg">
<path d="M26.7739 6.471C26.7739 6.47101 26.7739 6.471 26.7739 6.47099C22.4202 2.17733 17.882 0 13.285 0C11.4633 0 9.63634 0.347088 7.85502 1.03156C6.44288 1.57425 5.05704 2.32875 3.73637 3.27407C1.49454 4.87858 0.215737 6.47417 0.162464 6.54131C-0.0541547 6.81374 -0.0541547 7.1863 0.162464 7.4587C0.215766 7.52583 1.49404 9.12142 3.73568 10.7259C5.05679 11.6714 6.4422 12.4262 7.85434 12.9684C9.63596 13.6529 11.4628 14 13.2851 14C17.8817 14 22.42 11.8227 26.774 7.52893C27.0753 7.23302 27.0754 6.76842 26.7739 6.47102C26.7739 6.47101 26.7739 6.471 26.7739 6.471ZM11.3796 2.48878C12.3308 2.3053 13.2513 2.92409 13.4355 3.87128C13.62 4.81852 12.9984 5.73517 12.0473 5.91889C11.0961 6.10237 10.1756 5.48358 9.99136 4.53639C9.80663 3.58915 10.4285 2.67225 11.3796 2.48878ZM13.285 12.458C13.2851 12.4581 13.285 12.4582 13.285 12.4582C10.3721 12.4581 7.51216 11.4733 4.7845 9.53094C4.77149 9.52167 4.75852 9.51241 4.74558 9.50314C3.00118 8.25432 3.00206 5.747 4.7465 4.49822C4.7634 4.48613 4.78039 4.47401 4.79748 4.46187C5.94552 3.64632 7.83001 5.68826 8.0989 7.07058C8.67694 10.0407 11.5638 11.9821 14.5465 11.406C17.529 10.8303 19.4783 7.95552 18.9 4.98518C18.7451 4.18903 19.631 3.11104 20.3394 3.50589C21.4354 4.11671 22.5274 4.86939 23.6132 5.76294C24.3967 6.40773 24.3964 7.5936 23.613 8.23846C20.2089 11.0404 16.7435 12.4579 13.2851 12.4579C13.285 12.4579 13.285 12.458 13.285 12.458Z" fill="url(#paint0_linear_1_1215)"/>
<defs>
<linearGradient id="paint0_linear_1_1215" x1="-7.26456" y1="7.05938" x2="27.171" y2="7.05938" gradientUnits="userSpaceOnUse">
<stop stop-color="#F2584E"/>
<stop offset="1" stop-color="#FFBF18"/>
</linearGradient>
</defs>
</svg>
