<svg width="17" height="16" viewBox="0 0 17 16" fill="none" xmlns="http://www.w3.org/2000/svg">
<g clip-path="url(#clip0_146_3658)">
<path d="M14.47 3.6957H9.40595C9.20039 3.6957 8.99961 3.61129 8.86095 3.46782L7.28086 1.80333C6.90105 1.42473 6.38139 1.22698 5.85508 1.23001H2.41278C1.32581 1.22998 0.441406 2.11439 0.441406 3.20132V12.7989C0.441406 13.8859 1.32581 14.7703 2.41278 14.7703H14.4773H14.4791C15.5654 14.7655 16.4462 13.8768 16.4414 12.7929V5.66704C16.4414 4.58007 15.557 3.6957 14.47 3.6957ZM15.2357 12.7953C15.2375 13.2173 14.8957 13.5627 14.4761 13.5646H2.41278C1.99078 13.5646 1.64715 13.2209 1.64715 12.7989V3.20132C1.64715 2.77932 1.99078 2.4357 2.41278 2.43508H5.87077C5.8774 2.43508 5.88402 2.43508 5.89068 2.43508C6.09202 2.43508 6.28736 2.51526 6.41877 2.64548L7.99042 4.30213C8.35936 4.68313 8.87542 4.90138 9.40595 4.90138H14.47C14.892 4.90138 15.2356 5.24501 15.2356 5.66701V12.7953H15.2357Z" fill="#F56F42"/>
</g>
<defs>
<clipPath id="clip0_146_3658">
<rect width="16" height="16" fill="white" transform="translate(0.441406)"/>
</clipPath>
</defs>
</svg>
