<svg width="54" height="55" viewBox="0 0 54 55" fill="none" xmlns="http://www.w3.org/2000/svg">
<rect width="54" height="54.9666" rx="4" fill="#DF9E6F"/>
<g clip-path="url(#clip0_112_1779)">
<path d="M15 27.5076C14.9905 20.6497 20.5918 15.0345 27.4765 14.9999C34.3302 14.9661 39.9956 20.6188 40 27.4973C40.0052 34.381 34.3633 40.0176 27.4875 39.9999C20.6051 39.9815 15.0096 34.3847 15 27.5076ZM23.8062 36.0091C23.24 35.9495 22.709 35.9481 22.206 35.8282C21.3552 35.6253 20.8235 34.9936 20.3631 34.2913C20.044 33.8045 19.6439 33.442 19.0093 33.4023C18.571 33.3751 18.2989 33.0339 18.3298 32.6463C18.3614 32.2455 18.6607 31.986 19.1027 31.9668C19.6932 31.9418 20.2418 32.1066 20.6654 32.497C21.0926 32.8905 21.4589 33.3552 21.8177 33.8155C22.2913 34.4237 22.9311 34.6605 23.6319 34.4237C23.7216 34.3935 23.8356 34.3141 23.8606 34.234C23.9797 33.853 24.0717 33.464 24.1761 33.0684C23.7885 32.9184 23.3856 32.7794 22.9958 32.6095C19.0821 30.905 18.4548 26.4487 20.3198 23.5595C20.4962 23.2867 20.5198 23.0396 20.483 22.7351C20.3859 21.9299 20.3484 21.1218 20.6411 20.3401C20.9147 19.6121 21.3964 19.3341 22.1589 19.4481C23.0399 19.5805 23.7915 20.0136 24.5511 20.4394C24.7225 20.5357 24.9725 20.5813 25.1622 20.5401C26.6948 20.2033 28.2251 20.1879 29.7532 20.5357C30.054 20.6041 30.2856 20.5658 30.5438 20.4048C31.2519 19.9621 31.9888 19.5783 32.8308 19.4503C33.6096 19.3319 34.0942 19.615 34.3692 20.3636C34.6479 21.1225 34.6244 21.9086 34.5222 22.6873C34.4744 23.0536 34.545 23.3293 34.7332 23.6433C35.8282 25.4722 36.0003 27.4039 35.2208 29.385C34.5192 31.169 33.1308 32.2345 31.3689 32.8662C31.1791 32.9338 30.9872 32.9956 30.793 33.0603C31.4696 34.6399 31.0343 36.2694 31.2107 37.8482C35.3804 36.4996 39.1205 31.8462 38.4476 26.2119C37.7747 20.5703 33.0051 16.4191 27.4029 16.4772C21.6015 16.5375 17.1054 20.9482 16.5392 26.3325C15.9266 32.161 19.9322 36.6489 23.8062 37.8468V36.0084V36.0091ZM22.0052 20.7982C21.8376 21.6034 21.8332 22.2601 21.9986 22.905C22.1126 23.3499 22.0332 23.7183 21.7501 24.0691C21.311 24.6133 21.0566 25.2457 20.9029 25.9222C20.4036 28.1187 21.353 30.1895 23.3856 31.1528C24.0717 31.4778 24.8431 31.6278 25.5814 31.8382C26.1653 32.0043 26.3793 32.5272 26.044 33.0353C25.9359 33.1986 25.8233 33.3596 25.7027 33.5133C25.4189 33.8766 25.2983 34.292 25.2968 34.745C25.2946 35.9179 25.2961 37.0916 25.2961 38.2909C26.7587 38.6005 28.2457 38.5998 29.7062 38.2909C29.7062 37.2945 29.6745 36.3275 29.7157 35.3635C29.7525 34.5038 29.5635 33.7589 29.0017 33.0824C28.559 32.55 28.8127 31.9926 29.498 31.8249C30.0319 31.6948 30.5746 31.5808 31.0894 31.3947C34.6067 30.1211 34.8597 26.3222 33.347 24.2169C33.0014 23.7352 32.8859 23.2889 33.033 22.7168C33.1823 22.1351 33.1683 21.5343 33.0021 20.9093C32.7911 20.9696 32.5933 20.9968 32.4241 21.0806C31.9535 21.3137 31.4777 21.5439 31.0357 21.8262C30.5996 22.1049 30.1746 22.1623 29.676 22.0307C28.2391 21.6505 26.7896 21.6476 25.3527 22.0241C24.8247 22.1623 24.3894 22.088 23.9261 21.8057C23.337 21.4468 22.7039 21.16 22.0045 20.7982H22.0052Z" fill="black"/>
</g>
<defs>
<clipPath id="clip0_112_1779">
<rect width="25" height="25" fill="white" transform="translate(15 15)"/>
</clipPath>
</defs>
</svg>
