<svg width="21" height="22" viewBox="0 0 21 22" fill="none" xmlns="http://www.w3.org/2000/svg">
<g clip-path="url(#clip0_1_1209)">
<path d="M20.8773 11.2442C20.8773 10.5202 20.8186 9.79235 20.6933 9.08013H10.6479V13.1812H16.4005C16.1618 14.5039 15.3948 15.674 14.2716 16.4175V19.0786H17.7036C19.7189 17.2237 20.8773 14.4844 20.8773 11.2442Z" fill="#4285F4"/>
<path d="M10.648 21.6496C13.5203 21.6496 15.9426 20.7065 17.7075 19.0786L14.2756 16.4175C13.3207 17.0671 12.088 17.435 10.6519 17.435C7.87344 17.435 5.51765 15.5605 4.67238 13.0404H1.13086V15.7836C2.9388 19.3799 6.62119 21.6496 10.648 21.6496Z" fill="#34A853"/>
<path d="M4.66855 13.0404C4.22243 11.7177 4.22243 10.2854 4.66855 8.96273V6.21952H1.13094C-0.379585 9.22883 -0.379585 12.7743 1.13094 15.7836L4.66855 13.0404Z" fill="#FBBC04"/>
<path d="M10.648 4.56421C12.1663 4.54073 13.6338 5.11207 14.7334 6.16082L17.774 3.12021C15.8487 1.31227 13.2933 0.318296 10.648 0.349602C6.62119 0.349602 2.9388 2.61931 1.13086 6.21952L4.66847 8.96273C5.50982 6.43867 7.86953 4.56421 10.648 4.56421Z" fill="#EA4335"/>
</g>
<defs>
<clipPath id="clip0_1_1209">
<rect width="20.8774" height="21.3" fill="white" transform="translate(0 0.349609)"/>
</clipPath>
</defs>
</svg>
