<svg width="54" height="55" viewBox="0 0 54 55" fill="none" xmlns="http://www.w3.org/2000/svg">
<rect width="54" height="54.9666" rx="4" fill="#67CFCF"/>
<g clip-path="url(#clip0_112_1581)">
<path d="M19.2626 44C19.0097 43.8368 18.9384 43.5867 18.9066 43.3039C18.8593 42.8867 18.7895 42.4711 18.7243 42.0236H13.0223V41.023C13.1503 41.023 13.2736 41.023 13.3969 41.023C16.4573 41.023 19.5177 41.023 22.5782 41.0222C22.7147 41.0222 22.855 41.0277 22.9869 40.9997C23.2219 40.9515 23.3708 40.7938 23.3817 40.5522C23.3933 40.2997 23.2661 40.1241 23.0117 40.0597C22.9264 40.0379 22.8372 40.0294 22.755 40.0006C22.5386 39.9253 22.4207 39.7707 22.4207 39.5376C22.4207 39.3038 22.5425 39.1499 22.7573 39.0746C22.8488 39.0419 22.9497 39.0381 23.0427 39.0093C23.2645 38.9402 23.3801 38.7809 23.3832 38.5517C23.3863 38.3194 23.2645 38.1656 23.0505 38.0841C23.0148 38.0701 22.9737 38.0693 22.9357 38.0615C22.5751 37.9815 22.4223 37.8347 22.4184 37.5651C22.4145 37.2916 22.5658 37.1363 22.9217 37.0625C23.1909 37.0065 23.37 36.8682 23.3832 36.5769C23.3948 36.3112 23.2289 36.138 22.914 36.0712C22.5533 35.995 22.399 35.8257 22.4215 35.532C22.4432 35.2508 22.6487 35.0837 23.0008 35.0767C23.3917 35.0698 23.7834 35.076 24.1743 35.0744C24.6125 35.0729 24.8808 34.8849 24.8785 34.5842C24.8754 34.261 24.6334 34.0831 24.1852 34.0823C22.6891 34.0808 21.193 34.0823 19.6977 34.0816C19.6 34.0816 19.5015 34.0839 19.4045 34.0738C19.14 34.0458 18.9694 33.8679 18.9578 33.617C18.9461 33.3614 19.092 33.1586 19.3556 33.1221C19.586 33.0903 19.8225 33.0965 20.0568 33.0934C20.5648 33.0856 21.0743 33.1019 21.5815 33.0732C22.1438 33.0413 22.6387 32.6319 22.7713 32.1098H22.4797C20.9448 32.1098 19.4092 32.1044 17.8743 32.1168C17.7029 32.1184 17.509 32.1821 17.364 32.2761C16.5349 32.8121 15.7221 33.3738 14.8922 33.9083C14.7387 34.0078 14.5347 34.0645 14.3501 34.0746C13.9134 34.0987 13.4745 34.0823 13.0192 34.0823V33.0926C13.3946 33.0926 13.7544 33.1035 14.1128 33.0872C14.2508 33.0809 14.4059 33.0437 14.5192 32.9699C15.3459 32.4299 16.1618 31.8737 16.9878 31.333C17.1329 31.2382 17.1833 31.1403 17.153 30.974C17.1042 30.7045 17.0716 30.4326 17.0274 30.1272C16.5783 30.1272 16.1308 30.128 15.6841 30.1272C15.1466 30.1257 14.9845 29.9625 14.983 29.4249C14.9822 29.1725 14.983 28.9208 14.983 28.638C14.5331 28.638 14.1159 28.6403 13.6978 28.638C13.1627 28.6349 13.0029 28.4725 13.0021 27.9295C13.0006 26.4215 13.0006 24.9128 13.0021 23.4049C13.0021 22.8502 13.1658 22.6878 13.7195 22.6863C14.1283 22.6847 14.5378 22.6863 14.983 22.6863C14.983 22.4222 14.983 22.1805 14.983 21.9389C14.983 21.3555 15.1334 21.2032 15.7073 21.2025C18.1419 21.2025 20.5764 21.2048 23.0109 21.197C23.1994 21.197 23.3995 21.1543 23.574 21.082C27.2161 19.5687 30.8551 18.046 34.498 16.5342C34.6973 16.4518 34.7896 16.3524 34.7958 16.1364C34.8268 15.0853 35.7435 14.2206 36.8449 14.2727C37.9415 14.3247 38.7318 15.1847 38.7365 16.3415C38.7442 18.3692 38.7388 20.396 38.7388 22.4237C38.7388 22.5402 38.7388 22.6575 38.7388 22.7966C39.4298 22.9714 40.11 23.1431 40.7894 23.314C41.2532 23.4305 41.7178 23.5463 42.1808 23.6644C42.5787 23.7662 42.6865 23.8951 42.688 24.296C42.6919 25.2065 42.6919 26.1178 42.688 27.0283C42.6865 27.4284 42.574 27.5667 42.1831 27.6645C41.1508 27.9232 40.1201 28.1882 39.0847 28.4313C38.8241 28.4927 38.7279 28.5828 38.7303 28.8718C38.7458 30.8987 38.7419 32.9263 38.7373 34.954C38.7349 36.0937 38.0408 36.904 36.9635 37.0454C35.918 37.1821 34.8927 36.3679 34.8121 35.3098C34.7888 35.0068 34.6763 34.8639 34.3933 34.7474C30.821 33.2697 27.2518 31.7828 23.6903 30.2795C23.1327 30.0441 22.5805 30.1785 21.9942 30.1234C22.0422 30.4714 22.0849 30.7783 22.1322 31.1209C22.527 31.1209 22.9047 31.117 23.2824 31.1217C23.7307 31.1271 23.954 31.3485 23.8734 31.7851C23.7935 32.2186 23.6407 32.6389 23.5112 33.0949C23.7462 33.0949 24.0331 33.0872 24.3201 33.0965C25.1244 33.1237 25.7146 33.5952 25.8395 34.3022C25.9891 35.1529 25.4214 35.9298 24.5567 36.0587C24.4814 36.0696 24.4054 36.0766 24.3302 36.0851C24.4093 36.8915 24.3992 36.9405 24.0246 37.5566C24.4923 38.199 24.5217 38.8586 24.0898 39.4451C24.1945 39.8639 24.3294 40.2205 24.3635 40.5864C24.4039 41.0207 24.1867 41.3881 23.8431 41.6484C23.6803 41.7711 23.6578 41.8884 23.6888 42.0694C23.7632 42.5029 23.8183 42.9403 23.8842 43.3754C23.9292 43.6706 23.7733 43.8539 23.5476 44.0015H19.2649L19.2626 44ZM34.7609 17.5123C34.6965 17.5294 34.6678 17.5332 34.6414 17.5441C31.1196 19.0132 27.5992 20.4846 24.075 21.9467C23.8904 22.0228 23.8912 22.137 23.8912 22.2878C23.8928 24.5298 23.8959 26.7711 23.8866 29.0132C23.8858 29.2377 23.961 29.3341 24.1596 29.4164C27.593 30.8428 31.0234 32.2761 34.4553 33.7071C34.5476 33.746 34.6445 33.7755 34.7609 33.8174V17.5123ZM15.9966 22.2085V29.108H22.8837V22.2085H15.9966ZM37.743 25.6602C37.743 23.1928 37.743 20.7262 37.743 18.2589C37.743 17.5931 37.7499 16.9273 37.7399 16.2615C37.7313 15.6625 37.2862 15.2399 36.7084 15.2616C36.1243 15.2834 35.7606 15.7332 35.7606 16.4425C35.7606 22.5907 35.7606 28.739 35.7614 34.8872C35.7614 35.0138 35.7691 35.1428 35.7924 35.2663C35.8754 35.7099 36.243 36.0354 36.6843 36.0649C37.1442 36.0952 37.5592 35.8194 37.6871 35.3735C37.7321 35.2174 37.7406 35.0465 37.7406 34.8818C37.7437 31.8076 37.743 28.7335 37.743 25.6594V25.6602ZM38.7481 27.5029C39.7044 27.2621 40.6227 27.0353 41.5371 26.7929C41.6061 26.7742 41.6922 26.6507 41.6937 26.5738C41.7069 25.9671 41.6937 25.3595 41.7054 24.752C41.7093 24.5578 41.5937 24.5306 41.4572 24.4972C40.8887 24.3566 40.3202 24.2152 39.7517 24.0746C39.4236 23.993 39.0948 23.9122 38.7481 23.826V27.5029ZM14.9558 27.6327V23.6986H14.0065V27.6327H14.9558ZM18.1713 31.1015H21.1232C21.0759 30.7697 21.0317 30.4559 20.9875 30.1451H18.031C18.0791 30.4722 18.124 30.7791 18.1713 31.1015ZM22.8163 42.9893C22.7806 42.715 22.741 42.4742 22.7201 42.2318C22.7054 42.057 22.6255 42.0073 22.4564 42.0096C21.6862 42.0174 20.9161 42.0127 20.1452 42.0127C20.0133 42.0127 19.8807 42.0127 19.724 42.0127C19.7745 42.3631 19.8187 42.6692 19.8652 42.99H22.8163V42.9893Z" fill="black"/>
<path d="M42.3846 33.4826C41.5501 32.813 40.7435 32.1666 39.9121 31.5C40.1176 31.2421 40.3162 30.9935 40.5295 30.7263C41.3539 31.3874 42.1659 32.0384 42.9997 32.7073C42.7918 32.9691 42.5995 33.2115 42.3846 33.4826Z" fill="black"/>
<path d="M42.3831 18.3358C42.5979 18.6046 42.791 18.8462 43.0004 19.108C42.1706 19.7738 41.3586 20.4256 40.531 21.0898C40.3263 20.835 40.1316 20.5934 39.9121 20.3199C40.7288 19.6642 41.5385 19.0132 42.3831 18.3358Z" fill="black"/>
<path d="M39.958 35.8886C40.141 35.7014 40.3574 35.4799 40.5606 35.2725C41.2036 35.9166 41.8504 36.5653 42.5042 37.2202C42.2948 37.4152 42.0691 37.6257 41.8768 37.8052C41.2548 37.1836 40.6025 36.5326 39.958 35.8886Z" fill="black"/>
<path d="M41.9215 14C42.0836 14.1624 42.2969 14.376 42.5024 14.5819C41.8471 15.2251 41.1948 15.8653 40.5596 16.4876C40.396 16.3167 40.1842 16.0945 40.0059 15.9088C40.6007 15.3153 41.2514 14.6666 41.9208 14H41.9215Z" fill="black"/>
<path d="M16.9863 23.2068H17.9411V24.6533H16.9863V23.2068Z" fill="black"/>
<path d="M21.8972 23.2161V24.6495H20.9316V23.2161H21.8972Z" fill="black"/>
<path d="M18.9688 23.2021H19.9049V24.6479H18.9688V23.2021Z" fill="black"/>
</g>
<defs>
<clipPath id="clip0_112_1581">
<rect width="30" height="30" fill="white" transform="translate(13 14)"/>
</clipPath>
</defs>
</svg>
