<svg width="20" height="24" viewBox="0 0 20 24" fill="none" xmlns="http://www.w3.org/2000/svg">
<g id="notification">
<path id="Vector" d="M16.8 13.449V9.62358C16.7983 7.91915 16.1949 6.27033 15.0967 4.9691C13.9986 3.66788 12.4765 2.79823 10.8 2.51416V1.20295C10.8 0.883906 10.6736 0.577931 10.4485 0.352335C10.2235 0.126739 9.91826 0 9.6 0C9.28174 0 8.97651 0.126739 8.75147 0.352335C8.52643 0.577931 8.4 0.883906 8.4 1.20295V2.51416C6.72353 2.79823 5.20143 3.66788 4.10326 4.9691C3.0051 6.27033 2.40172 7.91915 2.4 9.62358V13.449C1.69974 13.6971 1.0932 14.1564 0.663526 14.7637C0.233854 15.371 0.00208741 16.0967 0 16.8413V19.2472C0 19.5662 0.126428 19.8722 0.351472 20.0978C0.576516 20.3234 0.88174 20.4501 1.2 20.4501H4.968C5.24434 21.4694 5.8476 22.3693 6.68471 23.0109C7.52183 23.6524 8.54627 24 9.6 24C10.6537 24 11.6782 23.6524 12.5153 23.0109C13.3524 22.3693 13.9557 21.4694 14.232 20.4501H18C18.3183 20.4501 18.6235 20.3234 18.8485 20.0978C19.0736 19.8722 19.2 19.5662 19.2 19.2472V16.8413C19.1979 16.0967 18.9661 15.371 18.5365 14.7637C18.1068 14.1564 17.5003 13.6971 16.8 13.449ZM4.8 9.62358C4.8 8.34741 5.30571 7.12351 6.20589 6.22113C7.10606 5.31874 8.32696 4.81179 9.6 4.81179C10.873 4.81179 12.0939 5.31874 12.9941 6.22113C13.8943 7.12351 14.4 8.34741 14.4 9.62358V13.2324H4.8V9.62358ZM9.6 21.6531C9.18117 21.6505 8.77029 21.5381 8.4082 21.3271C8.04611 21.1161 7.74541 20.8137 7.536 20.4501H11.664C11.4546 20.8137 11.1539 21.1161 10.7918 21.3271C10.4297 21.5381 10.0188 21.6505 9.6 21.6531ZM16.8 18.0442H2.4V16.8413C2.4 16.5222 2.52643 16.2162 2.75147 15.9906C2.97652 15.7651 3.28174 15.6383 3.6 15.6383H15.6C15.9183 15.6383 16.2235 15.7651 16.4485 15.9906C16.6736 16.2162 16.8 16.5222 16.8 16.8413V18.0442Z" fill="#7C7C8D"/>
<circle id="Ellipse 17" cx="14.5" cy="6.5" r="3.75" fill="#FF5E6F" stroke="white" stroke-width="1.5"/>
</g>
</svg>
