<svg width="17" height="16" viewBox="0 0 17 16" fill="none" xmlns="http://www.w3.org/2000/svg">
<g clip-path="url(#clip0_146_3648)">
<path fill-rule="evenodd" clip-rule="evenodd" d="M13.965 2.78143L11.9728 0.753007C11.5027 0.274385 10.8416 0 10.1583 0H3.77314C2.92325 0 2.23197 0.667274 2.23197 1.48765V4.47531H1.98257C1.13268 4.47531 0.441406 5.14258 0.441406 5.96296V11.5185C0.441406 12.3389 1.13268 13.0062 1.98257 13.0062H2.23197V14.5123C2.23197 15.3327 2.92325 16 3.77314 16H13.1097C13.9596 16 14.6508 15.3327 14.6508 14.5123V13.0062H14.9002C15.7501 13.0062 16.4414 12.3389 16.4414 11.5185V5.96296C16.4414 5.14258 15.7501 4.47531 14.9002 4.47531H14.6508V4.44201C14.6508 3.8216 14.4072 3.23169 13.965 2.78143ZM3.39584 1.48765C3.39584 1.28692 3.56519 1.12346 3.77314 1.12346H10.1583C10.5233 1.12346 10.8771 1.27025 11.1282 1.52597L13.1204 3.5544C13.3569 3.79519 13.487 4.11022 13.487 4.44201V4.47531H3.39584V1.48765ZM15.2775 11.5185C15.2775 11.7192 15.1082 11.8827 14.9002 11.8827H1.98257C1.77462 11.8827 1.60528 11.7192 1.60528 11.5185V5.96296C1.60528 5.76223 1.77462 5.59876 1.98257 5.59876H14.9002C15.1082 5.59876 15.2775 5.76223 15.2775 5.96296V11.5185ZM13.487 14.5123C13.487 14.7131 13.3176 14.8765 13.1097 14.8765H3.77314C3.56519 14.8765 3.39584 14.7131 3.39584 14.5123V13.0062H13.487V14.5123Z" fill="#F56F42"/>
<path d="M4.78507 6.83203H3.87261C3.75803 6.83203 3.64813 6.87577 3.5672 6.95356C3.48628 7.03135 3.44103 7.13684 3.44141 7.24672L3.44776 10.3868C3.44776 10.615 3.64083 10.8001 3.87897 10.8001C4.1171 10.8001 4.31017 10.615 4.31017 10.3868V9.43335C4.48647 9.4325 4.67482 9.43175 4.78507 9.43175C5.54272 9.43175 6.15914 8.84863 6.15914 8.13189C6.15914 7.41515 5.54272 6.83203 4.78507 6.83203ZM4.78507 8.60503C4.67385 8.60503 4.48481 8.60577 4.30781 8.60665C4.30689 8.43067 4.30609 8.24116 4.30609 8.13189C4.30609 8.03839 4.3056 7.8427 4.30508 7.65876H4.78504C5.06239 7.65876 5.29671 7.87541 5.29671 8.13189C5.29671 8.38837 5.06242 8.60503 4.78507 8.60503Z" fill="#F56F42"/>
<path d="M8.45294 6.83203H7.5523C7.4378 6.83203 7.32799 6.87568 7.24709 6.95337C7.1662 7.03105 7.12086 7.1364 7.12109 7.24617C7.12109 7.24619 7.12751 10.2843 7.12753 10.2953C7.12797 10.4049 7.17379 10.5099 7.25497 10.5872C7.33578 10.6641 7.44496 10.7072 7.55874 10.7072H7.56038C7.5876 10.7071 8.23001 10.7047 8.48683 10.7004C9.46118 10.6841 10.1684 9.87207 10.1684 8.7696C10.1683 7.6107 9.47897 6.83203 8.45294 6.83203ZM8.47177 9.87383C8.36009 9.8757 8.16794 9.87722 7.9885 9.87832C7.9873 9.51927 7.98494 8.03189 7.98428 7.65876H8.45294C9.24443 7.65876 9.30592 8.50902 9.30592 8.76963C9.30592 9.31229 9.048 9.86418 8.47177 9.87383Z" fill="#F56F42"/>
<path d="M13.0094 7.62677C13.2475 7.62677 13.4406 7.4417 13.4406 7.21341C13.4406 6.98513 13.2475 6.80005 13.0094 6.80005H11.691C11.4528 6.80005 11.2598 6.98513 11.2598 7.21341V10.3318C11.2598 10.5601 11.4528 10.7451 11.691 10.7451C11.9291 10.7451 12.1222 10.5601 12.1222 10.3318V9.15644H12.9047C13.1428 9.15644 13.3359 8.97136 13.3359 8.74307C13.3359 8.51479 13.1428 8.32971 12.9047 8.32971H12.1222V7.62677H13.0094Z" fill="#F56F42"/>
</g>
<defs>
<clipPath id="clip0_146_3648">
<rect width="16" height="16" fill="white" transform="translate(0.441406)"/>
</clipPath>
</defs>
</svg>
