<svg width="18" height="20" viewBox="0 0 18 20" fill="none" xmlns="http://www.w3.org/2000/svg">
<path d="M15.2711 10.3976L9.09108 16.5876C8.28089 17.3076 7.22622 17.6909 6.1428 17.659C5.05938 17.6271 4.02908 17.1825 3.26265 16.416C2.49622 15.6496 2.05159 14.6193 2.01969 13.5359C1.9878 12.4525 2.37106 11.3978 3.09108 10.5876L11.0911 2.5876C11.5687 2.1339 12.2023 1.88093 12.8611 1.88093C13.5198 1.88093 14.1535 2.1339 14.6311 2.5876C15.0964 3.05919 15.3573 3.69507 15.3573 4.3576C15.3573 5.02013 15.0964 5.65601 14.6311 6.1276L7.73108 13.0176C7.66279 13.0911 7.58069 13.1505 7.48945 13.1923C7.39822 13.2341 7.29965 13.2576 7.19936 13.2613C7.09907 13.265 6.99904 13.2489 6.90496 13.214C6.81089 13.179 6.72462 13.1259 6.65108 13.0576C6.57754 12.9893 6.51817 12.9072 6.47636 12.816C6.43455 12.7247 6.41112 12.6262 6.4074 12.5259C6.40369 12.4256 6.41976 12.3256 6.45471 12.2315C6.48966 12.1374 6.54279 12.0511 6.61108 11.9776L11.7411 6.8576C11.9294 6.6693 12.0352 6.4139 12.0352 6.1476C12.0352 5.8813 11.9294 5.6259 11.7411 5.4376C11.5528 5.2493 11.2974 5.14351 11.0311 5.14351C10.7648 5.14351 10.5094 5.2493 10.3211 5.4376L5.19108 10.5776C4.93438 10.8323 4.73064 11.1353 4.59161 11.4691C4.45257 11.8029 4.38099 12.161 4.38099 12.5226C4.38099 12.8842 4.45257 13.2423 4.59161 13.5761C4.73064 13.9099 4.93438 14.2129 5.19108 14.4676C5.71545 14.9671 6.41189 15.2457 7.13608 15.2457C7.86027 15.2457 8.55671 14.9671 9.08108 14.4676L15.9711 7.5676C16.766 6.71455 17.1987 5.58627 17.1781 4.42046C17.1576 3.25466 16.6853 2.14235 15.8608 1.31787C15.0363 0.49339 13.924 0.0211178 12.7582 0.000548494C11.5924 -0.0200208 10.4641 0.412718 9.61108 1.2076L1.61108 9.2076C0.532277 10.4024 -0.0438939 11.9675 0.00261124 13.5766C0.0491163 15.1857 0.714711 16.7148 1.86072 17.8454C3.00672 18.9759 4.54475 19.6207 6.15436 19.6453C7.76397 19.6699 9.32101 19.0725 10.5011 17.9776L16.6911 11.7976C16.7843 11.7044 16.8583 11.5937 16.9087 11.4718C16.9592 11.35 16.9852 11.2195 16.9852 11.0876C16.9852 10.9557 16.9592 10.8252 16.9087 10.7033C16.8583 10.5815 16.7843 10.4708 16.6911 10.3776C16.5978 10.2844 16.4872 10.2104 16.3653 10.1599C16.2435 10.1095 16.1129 10.0835 15.9811 10.0835C15.8492 10.0835 15.7187 10.1095 15.5968 10.1599C15.475 10.2104 15.3643 10.2844 15.2711 10.3776V10.3976Z" fill="#757575"/>
</svg>
