<svg width="21" height="15" viewBox="0 0 21 15" fill="none" xmlns="http://www.w3.org/2000/svg">
<path d="M20.1619 0.610291H9.4864C9.00709 0.610291 8.63672 1.01099 8.63672 1.47865C8.63672 1.94631 9.0288 2.34701 9.4864 2.34701H20.1401C20.6194 2.34701 20.9898 1.94631 20.9898 1.47865C20.9898 1.01099 20.6195 0.610291 20.1619 0.610291Z" fill="white"/>
<path d="M17.5039 4.75116H9.4864C9.00709 4.75116 8.63672 5.15186 8.63672 5.61952C8.63672 6.08717 9.0288 6.48788 9.4864 6.48788H17.5039C17.9832 6.48788 18.3536 6.08717 18.3536 5.61952C18.3536 5.15202 17.9615 4.75116 17.5039 4.75116Z" fill="white"/>
<path d="M14.8459 8.8703H9.4864C9.00709 8.8703 8.63672 9.271 8.63672 9.73866C8.63672 10.2063 9.0288 10.607 9.4864 10.607H14.8459C15.3252 10.607 15.6956 10.2063 15.6956 9.73866C15.6955 9.27116 15.3251 8.8703 14.8458 8.8703H14.8459Z" fill="white"/>
<path d="M12.1879 13.0124H9.4864C9.00709 13.0124 8.63672 13.4131 8.63672 13.8807C8.63672 14.3484 9.0288 14.7491 9.4864 14.7491H12.1879C12.6672 14.7491 13.0376 14.3484 13.0376 13.8807C13.0376 13.4133 12.6672 13.0124 12.1879 13.0124Z" fill="white"/>
<path d="M4.27801 0.877943C3.95127 0.544022 3.40662 0.544022 3.05799 0.877943L0.574155 3.41622C0.247417 3.75014 0.247417 4.30676 0.574155 4.66305C0.900893 4.99697 1.44554 4.99697 1.79417 4.66305L2.81815 3.61657V13.881C2.81815 14.3709 3.21023 14.7494 3.66783 14.7494C4.12542 14.7494 4.51751 14.3487 4.51751 13.881V3.61657L5.54148 4.66305C5.7158 4.8412 5.93357 4.93019 6.15151 4.93019C6.36945 4.93019 6.5872 4.8412 6.76154 4.66305C7.08827 4.32913 7.08827 3.77251 6.76154 3.41622L4.27801 0.877943Z" fill="white"/>
</svg>
