<svg width="54" height="55" viewBox="0 0 54 55" fill="none" xmlns="http://www.w3.org/2000/svg">
<rect width="54" height="54.9666" rx="4" fill="#D17CEF"/>
<g clip-path="url(#clip0_112_1741)">
<path d="M32.1416 44.0002C31.8304 43.8567 31.493 43.751 31.2149 43.5611C30.6846 43.1984 30.4907 42.7541 30.3551 41.8037H29.9778C24.7608 41.8037 19.5438 41.8054 14.3268 41.8037C12.7046 41.8037 11.4597 40.8738 11.0998 39.3888C11.0346 39.1198 11.0059 38.8371 11.0059 38.5604C11.0007 33.8347 10.9998 29.1081 11.0085 24.3824C11.0085 24.2028 11.0624 23.9845 11.1754 23.8565C11.2632 23.7577 11.5023 23.7095 11.637 23.7534C11.7718 23.7972 11.8891 23.9673 11.9587 24.1091C12.0109 24.214 11.9778 24.3618 11.9778 24.4907C11.9778 29.1305 11.9778 33.7711 11.9778 38.4109C11.9778 39.968 12.862 40.8386 14.4416 40.8386C19.7238 40.8386 25.0059 40.8386 30.2881 40.8386C30.3855 40.8386 30.4881 40.8532 30.5794 40.8291C30.6333 40.8145 30.7054 40.7363 30.7063 40.6856C30.7089 40.4948 30.2386 40.2001 30.063 40.2809C29.5457 40.5198 29.0154 40.622 28.4529 40.4691C27.5853 40.2336 26.995 39.5315 26.9124 38.6386C26.8333 37.7878 27.3106 36.9723 28.1061 36.5976C28.1643 36.5701 28.2252 36.5469 28.2851 36.522C28.6494 36.3707 28.7659 36.1524 28.659 35.7855C28.6416 35.7262 28.5729 35.6677 28.5129 35.6368C27.6783 35.2031 27.1263 34.5319 26.8568 33.6233C26.0535 33.6233 25.2415 33.6233 24.4304 33.6233C23.9853 33.6233 23.5411 33.625 23.096 33.6233C22.71 33.6207 22.4952 33.4488 22.4918 33.1455C22.4883 32.8378 22.6995 32.6591 23.0829 32.6582C24.3305 32.6556 25.578 32.6522 26.8246 32.6616C27.0307 32.6634 27.1498 32.6049 27.2689 32.4313C27.8426 31.5866 28.865 31.2927 29.8517 31.7077C30.156 31.8358 30.3525 31.8375 30.5741 31.5728C30.7019 31.4198 30.7211 31.315 30.6411 31.1509C30.3916 30.6413 30.3038 30.1127 30.469 29.5567C30.7045 28.7644 31.427 28.1577 32.225 28.082C33.1266 27.997 33.9351 28.4172 34.3358 29.1803C34.381 29.2654 34.4193 29.3548 34.4575 29.4433C34.6184 29.8145 34.774 29.9056 35.1713 29.8034C35.2582 29.781 35.346 29.6564 35.3817 29.5602C35.7016 28.6931 36.3162 28.1895 37.276 28.0554C37.276 27.9385 37.276 27.8225 37.276 27.7073C37.276 23.2498 37.276 18.7922 37.276 14.3346C37.276 12.8582 36.3762 11.9688 34.8861 11.9688C30.2655 11.9688 25.6449 11.9688 21.0243 11.9688C19.9463 11.9688 19.3795 12.5316 19.3717 13.5921C19.3638 14.5898 19.3473 15.5884 19.3291 16.5862C19.3265 16.7125 19.2926 16.8388 19.2734 16.966C19.569 16.9935 19.8655 16.9918 20.1471 17.0537C20.9895 17.2384 21.5842 17.9586 21.5972 18.8085C21.6102 19.6464 21.612 20.4843 21.5972 21.3222C21.5798 22.3045 20.7861 23.1011 19.7933 23.1234C18.937 23.1423 18.0798 23.1423 17.2226 23.1234C16.2124 23.1011 15.4292 22.3036 15.4109 21.2973C15.3996 20.6433 15.4092 19.9884 15.4092 19.2795C15.0805 19.2795 14.7702 19.2795 14.4607 19.2795C14.1138 19.2795 13.7661 19.2674 13.4201 19.2863C12.5681 19.3327 11.9961 19.9231 11.9796 20.7696C11.97 21.2638 11.9839 21.7579 11.9726 22.252C11.9665 22.5399 11.7744 22.7256 11.511 22.7341C11.2467 22.7427 11.012 22.5683 11.0137 22.2864C11.0198 21.3316 11.0007 20.3726 11.0963 19.4256C11.1754 18.6495 11.6092 18.0016 12.1699 17.4473C13.9504 15.6864 15.7291 13.9238 17.5086 12.1613C18.1085 11.5674 18.8162 11.179 19.662 11.0535C19.702 11.0475 19.7385 11.0191 19.7768 11.0011C25.0268 11.0011 30.2768 11.0011 35.5268 11.0011C35.5434 11.014 35.559 11.0338 35.5781 11.0381C37.3873 11.4841 38.254 12.5823 38.254 14.4309C38.254 18.9288 38.2557 23.4268 38.2497 27.9248C38.2497 28.1388 38.3018 28.2651 38.5052 28.3768C38.9799 28.6389 39.2781 29.0574 39.4276 29.573C39.585 30.1145 39.4972 30.6335 39.2642 31.138C39.2225 31.2282 39.1773 31.3554 39.2103 31.4327C39.3459 31.7464 39.6615 31.853 39.9901 31.7155C40.8273 31.3666 41.6097 31.4516 42.2939 32.0489C43.4814 33.0845 43.1206 34.9072 41.6097 35.5397C41.3767 35.6377 41.2168 35.7141 41.2255 36.0278C41.2333 36.3071 41.3359 36.4111 41.5723 36.5073C42.5608 36.9104 43.1085 37.7749 42.9807 38.6919C42.7807 40.1288 41.4028 40.9073 40.0249 40.3513C39.7684 40.2482 39.5824 40.1846 39.3572 40.4459C39.192 40.6384 39.1877 40.7613 39.2781 40.9735C39.7223 42.0134 39.4737 43.0317 38.6174 43.6058C38.3549 43.782 38.0332 43.8713 37.7385 44.0002H37.0873C36.2232 43.7888 35.6338 43.2775 35.3591 42.4327C35.2678 42.1509 35.0426 42.2875 34.8705 42.2591C34.7097 42.2334 34.6036 42.272 34.5201 42.4491C34.3715 42.7653 34.228 43.1211 33.9768 43.3428C33.6586 43.623 33.2352 43.7863 32.8571 43.9994H32.1407L32.1416 44.0002ZM32.6093 29.0359C31.7295 29.0334 31.1923 29.7355 31.4183 30.4488C31.5122 30.7444 31.6426 31.0288 31.7634 31.3159C31.8651 31.5565 31.8078 31.749 31.6226 31.9252C31.3496 32.1856 31.0775 32.4477 30.8193 32.7218C30.6324 32.9203 30.4264 32.9736 30.176 32.8722C29.9352 32.7751 29.6961 32.6737 29.4544 32.5817C28.8285 32.3437 28.2095 32.5869 27.9661 33.1627C27.7227 33.7393 27.9861 34.3546 28.5964 34.6219C28.8337 34.7259 29.0762 34.8195 29.3162 34.9184C29.5657 35.0206 29.6778 35.2011 29.67 35.4727C29.6587 35.8473 29.6622 36.2229 29.67 36.5976C29.6752 36.8528 29.5753 37.0316 29.3362 37.1313C29.0962 37.2309 28.8563 37.328 28.6172 37.4295C28.0017 37.6898 27.727 38.2957 27.96 38.8766C28.1973 39.4688 28.8328 39.724 29.4701 39.4773C29.7117 39.3837 29.9482 39.2754 30.1899 39.1817C30.4255 39.0906 30.6289 39.137 30.8089 39.3252C31.0688 39.5977 31.3366 39.8641 31.6122 40.1219C31.8095 40.3066 31.8721 40.506 31.7608 40.7578C31.653 41.0036 31.547 41.2502 31.4513 41.5012C31.227 42.0941 31.4904 42.7172 32.0547 42.9484C32.6258 43.1821 33.2431 42.9312 33.5134 42.3485C33.6221 42.1148 33.7238 41.8776 33.8151 41.637C33.9229 41.3551 34.1176 41.2477 34.4193 41.2631C34.7757 41.2812 35.1339 41.2786 35.4903 41.2631C35.7772 41.2502 35.9685 41.3551 36.0754 41.6206C36.1754 41.8698 36.2754 42.1191 36.3884 42.3623C36.6509 42.9269 37.2638 43.1761 37.8254 42.9561C38.3957 42.7327 38.6704 42.1105 38.4513 41.5184C38.3549 41.2571 38.2418 41.001 38.1314 40.7449C38.028 40.5052 38.0897 40.3118 38.274 40.1356C38.547 39.8752 38.82 39.614 39.0773 39.339C39.2651 39.1388 39.472 39.088 39.7215 39.1869C39.9623 39.2823 40.1996 39.3897 40.4413 39.4825C41.062 39.7197 41.694 39.4696 41.9331 38.8955C42.1739 38.3155 41.914 37.7122 41.2993 37.438C41.0629 37.3323 40.8195 37.2404 40.5795 37.1424C40.3135 37.0341 40.2153 36.8365 40.2266 36.5555C40.2413 36.2031 40.2396 35.8491 40.2266 35.4959C40.2161 35.2131 40.3248 35.0215 40.5908 34.9158C40.8116 34.8281 41.0333 34.7405 41.2515 34.6468C41.9122 34.3615 42.1852 33.7556 41.9279 33.1566C41.6775 32.5748 41.0516 32.3437 40.403 32.5963C40.1814 32.6831 39.9614 32.7725 39.7423 32.8653C39.4807 32.9762 39.2677 32.9281 39.0712 32.7175C38.8217 32.4502 38.5583 32.195 38.2905 31.9449C38.0949 31.7619 38.0245 31.5625 38.1349 31.3098C38.2384 31.0735 38.3401 30.8372 38.434 30.5974C38.6748 29.9838 38.4253 29.3582 37.8489 29.1176C37.2682 28.8752 36.6448 29.1356 36.3736 29.7398C36.2632 29.9847 36.1641 30.2339 36.0589 30.4806C35.9633 30.7048 35.7937 30.8028 35.5477 30.7985C35.1574 30.7916 34.767 30.7873 34.3776 30.7985C34.102 30.8063 33.9255 30.6971 33.8255 30.4445C33.7229 30.1849 33.6204 29.9245 33.4969 29.6745C33.2943 29.262 32.9544 29.0471 32.6128 29.0377L32.6093 29.0359ZM18.4649 12.725C16.5802 14.5856 14.6215 16.5183 12.742 18.3728C13.1497 18.3556 13.6635 18.323 14.179 18.3135C14.9154 18.2998 15.6543 18.3298 16.3889 18.292C17.3939 18.2405 18.2476 17.4911 18.3406 16.4985C18.4267 15.5833 18.378 14.6552 18.3997 13.7339C18.4084 13.3627 18.4467 12.9914 18.4649 12.725ZM16.3933 19.2795C16.3933 20.0056 16.3724 20.7017 16.4011 21.3961C16.4185 21.8138 16.7975 22.1446 17.2357 22.1523C18.0807 22.1678 18.9266 22.1687 19.7707 22.1523C20.2454 22.1429 20.6105 21.7742 20.6183 21.3024C20.6331 20.4766 20.6296 19.6498 20.6183 18.824C20.614 18.4579 20.4245 18.1391 20.0802 18.0566C19.6794 17.9595 19.2473 17.9878 18.8275 17.9698C18.7875 17.9681 18.737 18.0239 18.7057 18.0634C18.1215 18.7888 17.3617 19.1927 16.3915 19.2803L16.3933 19.2795Z" fill="black"/>
<path d="M18.5041 37.2393C18.092 37.2393 17.6799 37.2453 17.2679 37.2384C16.2255 37.2204 15.424 36.428 15.4092 35.3916C15.3979 34.5761 15.397 33.7597 15.4092 32.9441C15.4248 31.9146 16.2386 31.1205 17.2818 31.1094C18.0946 31.1008 18.9083 31.1008 19.7212 31.1094C20.7635 31.1197 21.5807 31.9154 21.5964 32.9424C21.6094 33.7579 21.6077 34.5744 21.5964 35.3899C21.5825 36.4254 20.7783 37.2195 19.7377 37.2384C19.3256 37.2461 18.9136 37.2393 18.5015 37.2393H18.5041ZM18.4806 36.2725C18.8927 36.2725 19.3048 36.2802 19.716 36.2708C20.2437 36.2579 20.6149 35.8969 20.6218 35.3727C20.6323 34.5683 20.6331 33.7631 20.621 32.9579C20.6131 32.4543 20.2384 32.0856 19.7299 32.0779C18.917 32.0658 18.1042 32.0667 17.2913 32.0779C16.7663 32.0847 16.3942 32.4551 16.3872 32.9776C16.3768 33.7717 16.3768 34.5658 16.3872 35.3598C16.3942 35.9029 16.7628 36.2613 17.3113 36.2716C17.7017 36.2794 18.0911 36.2733 18.4815 36.2725H18.4806Z" fill="black"/>
<path d="M15.4089 27.1253C15.4089 26.7068 15.4011 26.2883 15.4107 25.8698C15.4324 24.9322 16.134 24.133 17.0764 24.0788C18.0266 24.0247 18.9846 24.0247 19.9348 24.0788C20.8754 24.133 21.5813 24.9339 21.597 25.8732C21.6109 26.6784 21.6066 27.4837 21.5996 28.288C21.59 29.3614 20.805 30.1649 19.7201 30.1898C18.9072 30.2087 18.0935 30.2096 17.2815 30.1898C16.1983 30.1632 15.4202 29.3605 15.4072 28.2837C15.4029 27.897 15.4072 27.5112 15.4072 27.1244C15.4072 27.1244 15.4081 27.1244 15.4089 27.1244V27.1253ZM20.6259 27.1279C20.6259 27.1279 20.6251 27.1279 20.6242 27.1279C20.6242 26.7197 20.6338 26.3115 20.6216 25.9041C20.6077 25.4212 20.2817 25.049 19.7957 25.0327C18.9403 25.0044 18.0831 25.0044 17.2285 25.0301C16.7251 25.0456 16.3939 25.4186 16.387 25.9196C16.3765 26.7137 16.3765 27.5077 16.387 28.3026C16.3931 28.8294 16.7425 29.205 17.2772 29.2196C18.0892 29.2419 18.9029 29.2411 19.7157 29.2213C20.2651 29.2076 20.6138 28.8303 20.6251 28.2863C20.6329 27.9005 20.6268 27.5137 20.6268 27.127L20.6259 27.1279Z" fill="black"/>
<path d="M26.2192 19.5078C25.1672 19.5078 24.1162 19.5104 23.0643 19.5061C22.667 19.5044 22.4357 19.2689 22.5027 18.9346C22.5644 18.6244 22.7904 18.5385 23.0825 18.5393C24.5787 18.5428 26.0748 18.541 27.571 18.541C28.1239 18.541 28.6768 18.541 29.2297 18.541C29.6896 18.541 29.9296 18.712 29.9217 19.0317C29.9148 19.3428 29.6827 19.5061 29.2436 19.507C28.2352 19.507 27.2267 19.507 26.2183 19.507L26.2192 19.5078Z" fill="black"/>
<path d="M26.1846 25.5947C27.1817 25.5947 28.1788 25.5947 29.176 25.5956C29.2951 25.5956 29.4159 25.5939 29.5316 25.6179C29.7906 25.6712 29.9271 25.8474 29.9167 26.1009C29.9071 26.3381 29.768 26.5005 29.522 26.5443C29.4272 26.5615 29.3281 26.5607 29.2308 26.5607C27.2147 26.5615 25.1987 26.5615 23.1835 26.5607C23.0757 26.5607 22.9645 26.5607 22.8601 26.5392C22.6306 26.4902 22.5063 26.3381 22.4959 26.1069C22.4846 25.8637 22.5976 25.6884 22.8402 25.6274C22.9636 25.5964 23.0975 25.5973 23.227 25.5964C24.2129 25.5939 25.1996 25.5956 26.1854 25.5956L26.1846 25.5947Z" fill="black"/>
<path d="M24.5848 21.5781C24.0754 21.5781 23.5651 21.5815 23.0556 21.5772C22.6922 21.5747 22.4923 21.3994 22.4932 21.0986C22.494 20.8038 22.7001 20.6165 23.06 20.6147C24.0797 20.6087 25.0995 20.6087 26.1184 20.6147C26.4757 20.6165 26.6826 20.8081 26.6817 21.1029C26.6808 21.4028 26.4809 21.5747 26.114 21.5772C25.6046 21.5815 25.0943 21.5781 24.5848 21.5781Z" fill="black"/>
<path d="M24.6069 27.6822C25.1163 27.6822 25.6267 27.6779 26.1361 27.6839C26.4804 27.6873 26.6751 27.8592 26.6803 28.1471C26.6855 28.4341 26.4925 28.6395 26.1596 28.6429C25.119 28.6532 24.0775 28.6524 23.036 28.6447C22.683 28.6421 22.4813 28.4367 22.4926 28.1376C22.5039 27.8489 22.6943 27.6864 23.0455 27.683C23.5663 27.6787 24.087 27.6822 24.6069 27.6822Z" fill="black"/>
<path d="M24.5796 35.6932C24.0806 35.6932 23.5816 35.6958 23.0825 35.6932C22.6966 35.6907 22.4879 35.5153 22.4923 35.2077C22.4957 34.9155 22.7052 34.7316 23.0643 34.7299C24.084 34.7256 25.1038 34.7247 26.1227 34.7299C26.4791 34.7316 26.6843 34.9232 26.6808 35.2214C26.6773 35.5196 26.4765 35.6898 26.1088 35.6932C25.5993 35.6975 25.089 35.6941 24.5796 35.6941V35.6932Z" fill="black"/>
<path d="M34.9461 39.1772C33.1361 39.166 31.6973 37.6982 31.7608 35.9279C31.8225 34.1911 33.3439 32.7826 35.0539 32.8788C36.9109 32.9836 38.2731 34.4979 38.1175 36.3008C38.0949 36.5647 38.021 36.8285 37.9393 37.0829C37.8367 37.4008 37.5916 37.5254 37.316 37.4352C37.043 37.3458 36.923 37.1009 37.0239 36.7838C37.3073 35.8918 37.1386 35.1037 36.4623 34.448C35.6859 33.6952 34.4749 33.6393 33.6047 34.2951C32.7432 34.9439 32.4876 36.1247 33.004 37.07C33.5186 38.0118 34.6601 38.4467 35.6799 38.0892C35.772 38.0574 35.8598 38.0153 35.952 37.9835C36.2362 37.8838 36.5005 37.9852 36.6048 38.231C36.7066 38.469 36.624 38.7466 36.3536 38.8463C35.9033 39.0122 35.433 39.1256 34.9713 39.2605C34.9626 39.233 34.9548 39.2047 34.9461 39.1772Z" fill="black"/>
<path d="M18.1772 20.4505C18.5484 19.867 18.8953 19.3239 19.2413 18.7799C19.363 18.5891 19.5421 18.4671 19.7586 18.5427C19.9038 18.5934 20.0681 18.7223 20.122 18.8564C20.1715 18.9784 20.1263 19.1795 20.0507 19.3033C19.603 20.038 19.1405 20.7633 18.671 21.4844C18.4372 21.8427 18.099 21.859 17.8147 21.5325C17.5104 21.1836 17.2157 20.8252 16.9262 20.4643C16.7176 20.2039 16.735 19.934 16.954 19.7501C17.1723 19.5671 17.4478 19.5998 17.6687 19.8455C17.8338 20.0286 17.9868 20.2228 18.1772 20.4505Z" fill="black"/>
<path d="M18.1779 27.5077C18.5317 26.95 18.8638 26.4241 19.2003 25.9007C19.4089 25.5759 19.6671 25.4882 19.9279 25.6446C20.1896 25.8019 20.2339 26.0812 20.034 26.4C19.5949 27.1004 19.1533 27.7991 18.7047 28.4934C18.4396 28.9042 18.097 28.9249 17.7858 28.5588C17.5007 28.2227 17.2173 27.885 16.9399 27.5421C16.7182 27.268 16.7287 26.9861 16.9547 26.8022C17.1781 26.62 17.4615 26.669 17.6928 26.9302C17.771 27.0188 17.8458 27.1107 17.9214 27.2018C17.9971 27.292 18.0718 27.3823 18.1779 27.5086V27.5077Z" fill="black"/>
</g>
<defs>
<clipPath id="clip0_112_1741">
<rect width="32" height="33" fill="white" transform="translate(11 11)"/>
</clipPath>
</defs>
</svg>
