<svg width="54" height="55" viewBox="0 0 54 55" fill="none" xmlns="http://www.w3.org/2000/svg">
<rect width="54" height="54.9666" rx="4" fill="#CEF87D"/>
<g clip-path="url(#clip0_112_1620)">
<path d="M17.1749 42C16.644 41.8729 16.136 41.7047 15.7121 41.3455C15.2815 40.9805 14.9888 40.5322 14.8376 40.0043C14.6332 39.2906 14.4524 38.5705 14.2589 37.8533C14.199 37.6307 14.2444 37.4437 14.45 37.3172C14.7215 37.1496 15.0311 37.2937 15.1327 37.6488C15.3154 38.2875 15.4841 38.9303 15.6571 39.5713C15.9818 40.7783 16.8889 41.3098 18.1437 41.0297C18.9873 40.8416 19.8322 40.6611 20.6758 40.4736C21.8375 40.2158 22.5456 39.0053 22.1368 37.9354C21.2255 35.5494 20.2978 33.1693 19.3762 30.7869C19.3587 30.7424 19.3375 30.699 19.3066 30.6287C18.6263 30.8162 17.9526 31.002 17.2784 31.1877C16.7365 31.3371 16.1941 31.4836 15.6528 31.6359C14.4294 31.9805 13.8797 32.9174 14.196 34.1186C14.3278 34.6195 14.4627 35.1193 14.5915 35.6203C14.6762 35.9484 14.5552 36.1846 14.2813 36.2473C14.0267 36.3053 13.8072 36.1559 13.7225 35.8418C13.5574 35.2289 13.3832 34.6172 13.249 33.9978C12.9545 32.6355 13.8313 31.2135 15.3656 30.8021C16.6355 30.4617 17.9109 30.133 19.1633 29.7375C19.7396 29.5553 20.27 29.2324 20.8112 28.9547C20.8759 28.9213 20.9032 28.7725 20.9038 28.6764C20.9098 27.4559 20.9019 26.2348 20.9098 25.0143C20.9159 24.0639 21.4257 23.3332 22.3237 23.1961C22.9986 23.0924 23.7176 23.0941 24.3931 23.1973C25.2778 23.3326 25.7937 24.0627 25.8124 24.9879C25.8215 25.4361 25.8142 25.8844 25.8142 26.3883C26.0894 26.2477 26.3367 26.1434 26.5538 25.9969C26.624 25.9494 26.6367 25.7906 26.6373 25.6828C26.6427 24.3451 26.6439 23.0068 26.6397 21.6691C26.6367 20.8072 26.9693 20.1328 27.7796 19.7238C28.7986 19.21 30.4435 19.4824 31.0984 20.2646C31.4546 20.6906 31.5514 21.1881 31.5514 21.7172C31.5514 24.6076 31.5514 27.4986 31.5514 30.3891C31.5514 30.5033 31.5514 30.6176 31.5514 30.7201C31.5992 30.7336 31.6088 30.7389 31.6179 30.7383C32.1203 30.7062 32.3714 30.4516 32.3714 29.9742C32.3714 25.8041 32.3726 21.6346 32.3702 17.4645C32.3702 16.7648 32.5655 16.149 33.1606 15.7125C33.3571 15.5684 33.5882 15.4283 33.8234 15.382C34.6598 15.2174 35.5088 15.1342 36.2919 15.5713C36.8664 15.8918 37.2069 16.3945 37.2529 17.0432C37.2873 17.5295 37.2819 18.0187 37.2759 18.5068C37.2716 18.8203 37.0993 18.9879 36.8277 18.9861C36.5574 18.9844 36.3923 18.818 36.382 18.5016C36.37 18.1307 36.3814 17.7592 36.3766 17.3883C36.3663 16.5826 35.9285 16.1596 35.1048 16.1561C34.8527 16.1549 34.6005 16.1484 34.3489 16.1613C33.8216 16.1883 33.3989 16.5592 33.31 17.0637C33.2912 17.1691 33.2803 17.277 33.2803 17.3836C33.2791 21.6023 33.2791 25.8211 33.2797 30.0398C33.2797 30.0885 33.2852 30.1371 33.2906 30.2373C33.44 30.1664 33.5791 30.1207 33.6952 30.0422C34.5449 29.4662 35.3945 28.8902 36.2303 28.2955C36.324 28.2287 36.3718 28.0471 36.3718 27.9182C36.3802 25.4965 36.3772 23.0742 36.379 20.6525C36.379 20.526 36.382 20.3982 36.402 20.2734C36.4395 20.0455 36.6076 19.9307 36.8253 19.9295C37.0575 19.9289 37.2287 20.0496 37.2625 20.2922C37.2789 20.4076 37.2801 20.5254 37.2801 20.6426C37.2813 22.8299 37.2807 25.0178 37.2807 27.2051C37.2807 27.3082 37.2807 27.4113 37.2807 27.5092C37.6683 27.365 38.01 27.1916 38.3741 27.1113C39.3549 26.8951 40.2403 27.3088 40.7096 28.1572C41.1915 29.0285 41.0845 29.9455 40.3395 30.6217C39.6936 31.2082 38.9891 31.7344 38.3045 32.2799C37.2619 33.1113 36.2194 33.9428 35.1665 34.7613C34.4953 35.2834 33.7145 35.5893 32.8836 35.7855C29.736 36.5297 26.5889 37.2756 23.4419 38.0215C23.3548 38.042 23.2701 38.0695 23.209 38.0871C23.1752 38.4979 23.1903 38.9021 23.1008 39.2842C22.8686 40.2791 22.2245 40.957 21.2152 41.2301C20.1799 41.5102 19.121 41.7094 18.073 41.9443C18.0149 41.9572 17.9593 41.9795 17.9018 41.9971H17.1762L17.1749 42ZM22.845 37.248C22.9151 37.2404 22.9454 37.2404 22.9738 37.2334C25.8566 36.5502 28.74 35.8711 31.6209 35.1814C32.5069 34.9693 33.4333 34.8469 34.2062 34.3307C34.7686 33.9551 35.2978 33.5309 35.8287 33.1125C37.0479 32.1516 38.2622 31.1848 39.4723 30.2133C40.097 29.7123 40.2433 29.0496 39.869 28.5088C39.4196 27.859 38.6637 27.7248 37.9743 28.1895C36.7836 28.9916 35.6001 29.8031 34.4142 30.6123C33.5476 31.2035 32.5934 31.5914 31.5308 31.6271C30.3032 31.6687 29.0726 31.6553 27.8437 31.65C27.317 31.6477 26.9608 31.3951 26.8193 30.9791C26.6808 30.5719 26.8115 30.1852 27.2057 29.8611C27.421 29.6842 27.6405 29.5125 27.8619 29.3437C28.5489 28.8187 28.9438 28.1238 29.1294 27.307C29.2377 26.8318 28.9655 26.366 28.4709 26.2893C28.2265 26.2512 27.9254 26.3156 27.7016 26.4287C25.2585 27.6674 22.8256 28.9248 20.3903 30.1781C20.3202 30.2139 20.2543 30.2572 20.163 30.3111C21.0574 32.6232 21.9488 34.9289 22.8456 37.2475L22.845 37.248ZM27.6375 30.6832C27.6496 30.7072 27.6623 30.7318 27.6744 30.7559C27.7833 30.7623 27.8915 30.7746 28.0004 30.7752C28.766 30.7775 29.5316 30.7664 30.2972 30.7852C30.5766 30.7922 30.6497 30.7107 30.6491 30.4418C30.6395 27.5332 30.6431 24.6246 30.6425 21.716C30.6425 21.6281 30.6431 21.5402 30.6346 21.4529C30.5699 20.8084 30.1272 20.4041 29.4614 20.3842C29.2703 20.3783 29.0786 20.3824 28.8875 20.383C27.9883 20.3848 27.5498 20.8043 27.548 21.6744C27.545 22.8457 27.5468 24.017 27.548 25.1883C27.548 25.2809 27.5571 25.3734 27.5625 25.4824C27.6968 25.4525 27.7935 25.4303 27.8909 25.4098C29.1155 25.1508 30.2548 26.1744 30.0323 27.3668C29.9507 27.8021 29.7862 28.2311 29.6035 28.6395C29.2546 29.4193 28.5833 29.9309 27.9151 30.4389C27.8171 30.5133 27.7307 30.6023 27.6387 30.6844L27.6375 30.6832ZM21.8332 28.3904C21.8713 28.3934 21.8949 28.4021 21.9094 28.3945C22.8692 27.9047 23.8289 27.4154 24.7844 26.9174C24.8454 26.8857 24.9011 26.7832 24.9023 26.7129C24.9108 26.1088 24.921 25.5041 24.9011 24.9006C24.8829 24.3674 24.4959 24.0182 23.948 24.0059C23.5864 23.9977 23.2241 24.0012 22.8619 24.0041C22.1792 24.0088 21.8199 24.3504 21.8163 25.0131C21.8103 26.0654 21.8145 27.1184 21.8157 28.1707C21.8157 28.2445 21.8284 28.3189 21.8345 28.3904H21.8332Z" fill="black"/>
<path d="M30.358 12.0002C31.195 12.2422 31.4798 12.8123 31.4562 13.6232C31.4248 14.706 31.4575 15.7906 31.4454 16.8746C31.4351 17.7734 30.6701 18.3722 29.7575 18.217C29.2435 18.1297 28.9454 17.805 28.793 17.3498C28.7131 17.1119 28.6841 16.8576 28.6249 16.5757C28.5456 16.6461 28.4676 16.7123 28.392 16.7826C27.3392 17.764 26.2869 18.7472 25.2335 19.7281C24.5804 20.3357 24.0675 20.4078 23.2675 20.0082C22.9276 19.8382 22.5799 19.6806 22.2521 19.4914C22.0507 19.3754 21.9334 19.4 21.7689 19.5611C19.6874 21.6043 17.5974 23.6386 15.5105 25.6765C15.1646 26.0146 14.7848 26.2695 14.2593 26.1898C13.7223 26.1084 13.3213 25.8406 13.1121 25.3484C12.9071 24.8656 12.9912 24.4109 13.3195 23.9996C13.3933 23.9076 13.4786 23.8232 13.5638 23.74C15.8842 21.473 18.2058 19.206 20.5268 16.9396C21.2307 16.2523 21.7103 16.1814 22.6077 16.6297C22.9657 16.8084 23.3189 16.9964 23.6841 17.1593C23.7658 17.1957 23.9266 17.1828 23.9877 17.1271C24.8229 16.363 25.6471 15.5873 26.4732 14.8138C26.4932 14.7951 26.5046 14.7675 26.5331 14.7242C26.3668 14.699 26.2113 14.6861 26.0614 14.6504C25.4451 14.5039 25.0968 14.116 25.0442 13.53C24.9886 12.913 25.3073 12.364 25.8618 12.1209C25.9507 12.0822 26.0384 12.04 26.1261 11.9996C27.5369 11.9996 28.9484 11.9996 30.3592 11.9996L30.358 12.0002ZM30.5413 15.0763C30.5413 15.0763 30.5407 15.0763 30.5401 15.0763C30.5401 14.5004 30.5455 13.9244 30.5376 13.3484C30.5334 13.0214 30.3925 12.8832 30.0545 12.8814C28.8655 12.8761 27.6766 12.8755 26.4877 12.8814C26.1563 12.8832 25.9453 13.08 25.9465 13.3537C25.9477 13.6285 26.1563 13.8136 26.4907 13.8201C26.8433 13.8271 27.1959 13.8254 27.5484 13.8207C27.7921 13.8177 28.0153 13.847 28.1278 14.0966C28.2427 14.3521 28.0975 14.5214 27.9221 14.6849C26.7314 15.7947 25.5389 16.9027 24.3536 18.0183C24.1147 18.2433 23.8813 18.2691 23.5922 18.1173C23.0975 17.8566 22.5926 17.6129 22.0913 17.3644C21.6456 17.1435 21.5851 17.1535 21.2283 17.5021C18.8928 19.7814 16.5579 22.0607 14.223 24.34C14.1595 24.4021 14.0924 24.463 14.0374 24.5322C13.8596 24.7589 13.8747 25.0127 14.0706 25.1925C14.2569 25.363 14.5363 25.3543 14.7485 25.1673C14.8229 25.1017 14.8918 25.0302 14.9626 24.9605C17.1203 22.8547 19.278 20.7482 21.4357 18.6423C21.7484 18.3377 21.8693 18.3189 22.2594 18.5123C22.7341 18.7478 23.207 18.9863 23.6811 19.223C24.1425 19.4533 24.2272 19.4416 24.6082 19.0871C25.9519 17.8355 27.295 16.5834 28.6369 15.3306C28.822 15.1578 29.0022 14.9755 29.2931 15.1027C29.5634 15.2211 29.5719 15.456 29.5689 15.6986C29.5646 16.0595 29.5652 16.4211 29.5689 16.782C29.5725 17.1482 29.7575 17.3656 30.0575 17.3627C30.3568 17.3603 30.5364 17.1441 30.5389 16.7744C30.5419 16.2084 30.5395 15.6418 30.5395 15.0757L30.5413 15.0763Z" fill="black"/>
<path d="M18.6552 40.0195C17.6676 40.0231 16.8688 39.2531 16.8682 38.2963C16.8676 37.3465 17.6827 36.5566 18.6558 36.5643C19.6197 36.5719 20.4222 37.3471 20.4343 38.2822C20.4464 39.2262 19.6373 40.0166 18.6552 40.0201V40.0195ZM18.64 39.14C19.1293 39.143 19.5272 38.765 19.5272 38.2963C19.5272 37.8322 19.1196 37.4391 18.6425 37.4426C18.1714 37.4461 17.7825 37.8217 17.7753 38.2793C17.7674 38.7557 18.1508 39.1365 18.6407 39.14H18.64Z" fill="black"/>
</g>
<defs>
<clipPath id="clip0_112_1620">
<rect width="28" height="30" fill="white" transform="translate(13 12)"/>
</clipPath>
</defs>
</svg>
