<svg width="32" height="30" viewBox="0 0 32 30" fill="none" xmlns="http://www.w3.org/2000/svg">
<g clip-path="url(#clip0_7_862)">
<path d="M25.0409 15.8822C21.1968 15.8822 18.0811 19.0421 18.0811 22.94C18.0811 26.8382 21.1968 29.9987 25.0409 29.9987C28.8843 29.9987 32 26.8382 32 22.94C32 19.0421 28.8843 15.8822 25.0409 15.8822ZM6.95945 15.8826C3.116 15.8829 0 19.0421 0 22.9403C0 26.8382 3.116 29.9984 6.95945 29.9984C10.8032 29.9984 13.9192 26.8382 13.9192 22.9403C13.9192 19.0421 10.8032 15.8826 6.95911 15.8826H6.95945ZM22.9595 7.05963C22.9595 10.9575 19.8438 14.1184 16.0004 14.1184C12.1563 14.1184 9.04057 10.9575 9.04057 7.05963C9.04057 3.16172 12.1563 0.0015564 16.0003 0.0015564C19.8438 0.0015564 22.9591 3.16172 22.9591 7.05963H22.9595Z" fill="url(#paint0_radial_7_862)"/>
</g>
<defs>
<radialGradient id="paint0_radial_7_862" cx="0" cy="0" r="1" gradientUnits="userSpaceOnUse" gradientTransform="translate(16.0043 16.4144) scale(21.216 19.8881)">
<stop stop-color="#FFB900"/>
<stop offset="0.6" stop-color="#F95D8F"/>
<stop offset="0.999" stop-color="#F95353"/>
</radialGradient>
<clipPath id="clip0_7_862">
<rect width="32" height="30" fill="white"/>
</clipPath>
</defs>
</svg>
